M48
; DRILL file {KiCad 7.0.7} date Sun Oct 29 07:58:41 2023
; FORMAT={-:-/ absolute / metric / decimal}
; #@! TF.CreationDate,2023-10-29T07:58:41+01:00
; #@! TF.GenerationSoftware,Kicad,Pcbnew,7.0.7
; #@! TF.FileFunction,Plated,1,2,PTH
FMAT,2
METRIC
; #@! TA.AperFunction,Plated,PTH,ViaDrill
T1C0.400
; #@! TA.AperFunction,Plated,PTH,ComponentDrill
T2C0.700
; #@! TA.AperFunction,Plated,PTH,ComponentDrill
T3C0.710
; #@! TA.AperFunction,Plated,PTH,ComponentDrill
T4C0.800
; #@! TA.AperFunction,Plated,PTH,ComponentDrill
T5C1.000
; #@! TA.AperFunction,Plated,PTH,ComponentDrill
T6C1.040
; #@! TA.AperFunction,Plated,PTH,ComponentDrill
T7C1.100
; #@! TA.AperFunction,Plated,PTH,ComponentDrill
T8C3.200
%
G90
G05
T1
X125.73Y-38.366
X135.89Y-41.414
X138.696Y-63.246
X140.97Y-42.164
X143.511Y-40.648
X146.558Y-87.884
X147.574Y-84.074
X153.67Y-39.916
X158.75Y-39.116
X161.29Y-37.592
T2
X110.49Y-93.98
X110.49Y-101.6
X110.49Y-111.76
X110.49Y-119.38
X113.03Y-93.98
X113.03Y-101.6
X113.03Y-111.76
X113.03Y-119.38
X123.29Y-93.98
X123.29Y-101.6
X123.29Y-111.76
X123.29Y-119.38
X125.73Y-93.98
X125.73Y-101.6
X125.73Y-111.76
X125.73Y-119.38
X142.24Y-94.782
X142.24Y-97.282
X145.288Y-94.782
X145.288Y-97.282
T3
X147.498Y-125.496
X149.098Y-120.396
T4
X103.505Y-106.69
X103.505Y-124.714
X106.025Y-93.99
X106.025Y-101.61
X106.045Y-106.69
X106.045Y-111.76
X106.045Y-119.38
X106.045Y-124.714
X108.585Y-106.69
X108.585Y-124.714
X111.76Y-104.785
X111.76Y-107.96
X111.76Y-122.682
X111.76Y-125.984
X113.284Y-64.765
X113.284Y-67.305
X113.284Y-69.845
X113.284Y-72.385
X113.284Y-74.925
X113.284Y-77.465
X113.284Y-80.005
X113.324Y-83.566
X115.824Y-83.566
X120.904Y-64.765
X120.904Y-67.305
X120.904Y-69.845
X120.904Y-72.385
X120.904Y-74.925
X120.904Y-77.465
X120.904Y-80.005
X121.92Y-104.785
X121.92Y-107.96
X121.92Y-122.682
X121.92Y-125.984
X125.73Y-64.77
X125.73Y-67.31
X125.73Y-69.85
X125.73Y-72.39
X125.73Y-74.93
X125.73Y-77.47
X125.73Y-80.01
X125.73Y-82.55
X125.73Y-85.09
X128.31Y-88.412
X130.81Y-88.412
X133.35Y-64.77
X133.35Y-67.31
X133.35Y-69.85
X133.35Y-72.39
X133.35Y-74.93
X133.35Y-77.47
X133.35Y-80.01
X133.35Y-82.55
X133.35Y-85.09
X137.922Y-94.782
X137.922Y-97.282
X141.645Y-64.77
X141.645Y-67.945
X141.645Y-71.12
X141.645Y-74.295
X141.645Y-77.47
X141.645Y-80.645
X141.645Y-83.82
X141.645Y-86.995
X144.018Y-116.078
X144.145Y-64.77
X144.145Y-67.945
X144.145Y-71.12
X144.145Y-74.295
X144.145Y-77.47
X144.145Y-80.645
X144.145Y-83.82
X144.145Y-86.995
X148.082Y-91.186
X148.082Y-98.806
X151.13Y-88.646
X151.13Y-98.806
X154.178Y-116.078
X154.432Y-88.646
X154.432Y-98.806
X154.432Y-108.732
X154.432Y-111.232
T5
X104.775Y-34.29
X104.775Y-36.83
X104.775Y-39.37
X104.775Y-41.91
X104.775Y-44.45
X104.775Y-46.99
X104.775Y-49.53
X104.775Y-52.07
X104.775Y-54.61
X104.775Y-57.15
X104.775Y-59.69
X104.775Y-62.23
X104.775Y-64.77
X132.608Y-120.65
X140.208Y-120.65
X159.512Y-72.765
X159.512Y-75.535
X159.512Y-78.305
X159.512Y-81.075
X159.512Y-83.845
X159.512Y-105.76
X159.512Y-108.53
X159.512Y-111.3
X159.512Y-114.07
X159.512Y-116.84
X162.352Y-74.15
X162.352Y-76.92
X162.352Y-79.69
X162.352Y-82.46
X162.352Y-107.145
X162.352Y-109.915
X162.352Y-112.685
X162.352Y-115.455
T6
X123.19Y-34.29
X123.19Y-59.69
X125.73Y-34.29
X125.73Y-59.69
X128.27Y-34.29
X128.27Y-59.69
X130.81Y-34.29
X130.81Y-59.69
X133.35Y-34.29
X133.35Y-59.69
X135.89Y-34.29
X135.89Y-59.69
X138.43Y-34.29
X138.43Y-59.69
X140.97Y-34.29
X140.97Y-59.69
X143.51Y-34.29
X143.51Y-59.69
X146.05Y-34.29
X146.05Y-59.69
X148.59Y-34.29
X148.59Y-59.69
X151.13Y-34.29
X151.13Y-59.69
X153.67Y-34.29
X153.67Y-59.69
X156.21Y-34.29
X156.21Y-59.69
X158.75Y-34.29
X158.75Y-59.69
X161.29Y-34.29
X161.29Y-59.69
X163.83Y-34.29
X163.83Y-59.69
X166.37Y-34.29
X166.37Y-59.69
X168.91Y-34.29
X168.91Y-59.69
T7
X149.027Y-103.378
X149.027Y-105.918
X149.027Y-108.458
X152.87Y-121.666
X152.87Y-125.476
T8
X160.932Y-65.805
X160.932Y-90.805
X160.932Y-98.8
X160.932Y-123.8
T0
M30
