G04 #@! TF.GenerationSoftware,KiCad,Pcbnew,7.0.7*
G04 #@! TF.CreationDate,2023-10-29T07:57:56+01:00*
G04 #@! TF.ProjectId,Antenna-Remote,416e7465-6e6e-4656-9e75-6d736368616c,2*
G04 #@! TF.SameCoordinates,Original*
G04 #@! TF.FileFunction,Copper,L2,Bot*
G04 #@! TF.FilePolarity,Positive*
%FSLAX46Y46*%
G04 Gerber Fmt 4.6, Leading zero omitted, Abs format (unit mm)*
G04 Created by KiCad (PCBNEW 7.0.7) date 2023-10-29 07:57:56*
%MOMM*%
%LPD*%
G01*
G04 APERTURE LIST*
G04 #@! TA.AperFunction,ComponentPad*
%ADD10C,1.600000*%
G04 #@! TD*
G04 #@! TA.AperFunction,ComponentPad*
%ADD11O,1.600000X1.600000*%
G04 #@! TD*
G04 #@! TA.AperFunction,ComponentPad*
%ADD12R,2.000000X1.905000*%
G04 #@! TD*
G04 #@! TA.AperFunction,ComponentPad*
%ADD13O,2.000000X1.905000*%
G04 #@! TD*
G04 #@! TA.AperFunction,ComponentPad*
%ADD14R,2.200000X2.200000*%
G04 #@! TD*
G04 #@! TA.AperFunction,ComponentPad*
%ADD15O,2.200000X2.200000*%
G04 #@! TD*
G04 #@! TA.AperFunction,ComponentPad*
%ADD16R,1.600000X1.600000*%
G04 #@! TD*
G04 #@! TA.AperFunction,ComponentPad*
%ADD17R,2.000000X2.000000*%
G04 #@! TD*
G04 #@! TA.AperFunction,ComponentPad*
%ADD18C,2.000000*%
G04 #@! TD*
G04 #@! TA.AperFunction,ComponentPad*
%ADD19C,4.000000*%
G04 #@! TD*
G04 #@! TA.AperFunction,ComponentPad*
%ADD20R,1.700000X1.700000*%
G04 #@! TD*
G04 #@! TA.AperFunction,ComponentPad*
%ADD21O,1.700000X1.700000*%
G04 #@! TD*
G04 #@! TA.AperFunction,ComponentPad*
%ADD22R,1.500000X1.500000*%
G04 #@! TD*
G04 #@! TA.AperFunction,ComponentPad*
%ADD23C,1.500000*%
G04 #@! TD*
G04 #@! TA.AperFunction,ComponentPad*
%ADD24R,1.560000X1.560000*%
G04 #@! TD*
G04 #@! TA.AperFunction,ComponentPad*
%ADD25C,1.560000*%
G04 #@! TD*
G04 #@! TA.AperFunction,ComponentPad*
%ADD26C,1.400000*%
G04 #@! TD*
G04 #@! TA.AperFunction,ComponentPad*
%ADD27C,1.270000*%
G04 #@! TD*
G04 #@! TA.AperFunction,ComponentPad*
%ADD28R,1.400000X1.400000*%
G04 #@! TD*
G04 #@! TA.AperFunction,ViaPad*
%ADD29C,0.800000*%
G04 #@! TD*
G04 #@! TA.AperFunction,Conductor*
%ADD30C,0.250000*%
G04 #@! TD*
G04 #@! TA.AperFunction,Conductor*
%ADD31C,0.500000*%
G04 #@! TD*
G04 #@! TA.AperFunction,Conductor*
%ADD32C,0.400000*%
G04 #@! TD*
G04 APERTURE END LIST*
D10*
X113324000Y-83566000D03*
X115824000Y-83566000D03*
X141645000Y-74295000D03*
X144145000Y-74295000D03*
X111760000Y-104785000D03*
D11*
X121920000Y-104785000D03*
D10*
X141645000Y-71120000D03*
X144145000Y-71120000D03*
X151130000Y-98806000D03*
D11*
X151130000Y-88646000D03*
D10*
X144018000Y-116078000D03*
D11*
X154178000Y-116078000D03*
D12*
X149027000Y-108458000D03*
D13*
X149027000Y-105918000D03*
X149027000Y-103378000D03*
D14*
X152870000Y-125476000D03*
D15*
X152870000Y-121666000D03*
D16*
X106045000Y-111760000D03*
D11*
X106045000Y-119380000D03*
D17*
X132608000Y-120650000D03*
D18*
X140208000Y-120650000D03*
D19*
X160932000Y-90805000D03*
X160932000Y-65805000D03*
D16*
X159512000Y-72765000D03*
D10*
X159512000Y-75535000D03*
X159512000Y-78305000D03*
X159512000Y-81075000D03*
X159512000Y-83845000D03*
X162352000Y-74150000D03*
X162352000Y-76920000D03*
X162352000Y-79690000D03*
X162352000Y-82460000D03*
X141645000Y-80645000D03*
X144145000Y-80645000D03*
D20*
X104775000Y-34290000D03*
D21*
X104775000Y-36830000D03*
X104775000Y-39370000D03*
X104775000Y-41910000D03*
X104775000Y-44450000D03*
X104775000Y-46990000D03*
X104775000Y-49530000D03*
X104775000Y-52070000D03*
X104775000Y-54610000D03*
X104775000Y-57150000D03*
X104775000Y-59690000D03*
X104775000Y-62230000D03*
X104775000Y-64770000D03*
D22*
X108585000Y-106690000D03*
D23*
X106045000Y-106690000D03*
X103505000Y-106690000D03*
D10*
X111760000Y-122682000D03*
D11*
X121920000Y-122682000D03*
D24*
X123190000Y-59690000D03*
D25*
X125730000Y-59690000D03*
X128270000Y-59690000D03*
X130810000Y-59690000D03*
X133350000Y-59690000D03*
X135890000Y-59690000D03*
X138430000Y-59690000D03*
X140970000Y-59690000D03*
X143510000Y-59690000D03*
X146050000Y-59690000D03*
X148590000Y-59690000D03*
X151130000Y-59690000D03*
X153670000Y-59690000D03*
X156210000Y-59690000D03*
X158750000Y-59690000D03*
X161290000Y-59690000D03*
X163830000Y-59690000D03*
X166370000Y-59690000D03*
X168910000Y-59690000D03*
X123190000Y-34290000D03*
X125730000Y-34290000D03*
X128270000Y-34290000D03*
X130810000Y-34290000D03*
X133350000Y-34290000D03*
X135890000Y-34290000D03*
X138430000Y-34290000D03*
X140970000Y-34290000D03*
X143510000Y-34290000D03*
X146050000Y-34290000D03*
X148590000Y-34290000D03*
X151130000Y-34290000D03*
X153670000Y-34290000D03*
X156210000Y-34290000D03*
X158750000Y-34290000D03*
X161290000Y-34290000D03*
X163830000Y-34290000D03*
X166370000Y-34290000D03*
X168910000Y-34290000D03*
D26*
X142240000Y-97282000D03*
X142240000Y-94782000D03*
D16*
X148082000Y-91186000D03*
D11*
X148082000Y-98806000D03*
D10*
X141645000Y-77470000D03*
X144145000Y-77470000D03*
X141645000Y-64770000D03*
X144145000Y-64770000D03*
X128310000Y-88412000D03*
X130810000Y-88412000D03*
X154432000Y-98806000D03*
D11*
X154432000Y-88646000D03*
D16*
X106025000Y-93990000D03*
D11*
X106025000Y-101610000D03*
D27*
X149098000Y-120396000D03*
X147498000Y-125496000D03*
D10*
X121920000Y-107960000D03*
D11*
X111760000Y-107960000D03*
D10*
X141645000Y-67945000D03*
X144145000Y-67945000D03*
D28*
X110490000Y-119380000D03*
D26*
X113030000Y-119380000D03*
X123290000Y-119380000D03*
X125730000Y-119380000D03*
X125730000Y-111760000D03*
X123290000Y-111760000D03*
X113030000Y-111760000D03*
X110490000Y-111760000D03*
D10*
X154432000Y-111232000D03*
X154432000Y-108732000D03*
D16*
X137922000Y-97282000D03*
D10*
X137922000Y-94782000D03*
X141645000Y-86995000D03*
X144145000Y-86995000D03*
D16*
X125730000Y-64770000D03*
D11*
X125730000Y-67310000D03*
X125730000Y-69850000D03*
X125730000Y-72390000D03*
X125730000Y-74930000D03*
X125730000Y-77470000D03*
X125730000Y-80010000D03*
X125730000Y-82550000D03*
X125730000Y-85090000D03*
X133350000Y-85090000D03*
X133350000Y-82550000D03*
X133350000Y-80010000D03*
X133350000Y-77470000D03*
X133350000Y-74930000D03*
X133350000Y-72390000D03*
X133350000Y-69850000D03*
X133350000Y-67310000D03*
X133350000Y-64770000D03*
D28*
X110490000Y-101600000D03*
D26*
X113030000Y-101600000D03*
X123290000Y-101600000D03*
X125730000Y-101600000D03*
X125730000Y-93980000D03*
X123290000Y-93980000D03*
X113030000Y-93980000D03*
X110490000Y-93980000D03*
D19*
X160932000Y-123800000D03*
X160932000Y-98800000D03*
D16*
X159512000Y-116840000D03*
D10*
X159512000Y-114070000D03*
X159512000Y-111300000D03*
X159512000Y-108530000D03*
X159512000Y-105760000D03*
X162352000Y-115455000D03*
X162352000Y-112685000D03*
X162352000Y-109915000D03*
X162352000Y-107145000D03*
D16*
X113284000Y-64765000D03*
D11*
X113284000Y-67305000D03*
X113284000Y-69845000D03*
X113284000Y-72385000D03*
X113284000Y-74925000D03*
X113284000Y-77465000D03*
X113284000Y-80005000D03*
X120904000Y-80005000D03*
X120904000Y-77465000D03*
X120904000Y-74925000D03*
X120904000Y-72385000D03*
X120904000Y-69845000D03*
X120904000Y-67305000D03*
X120904000Y-64765000D03*
D26*
X145288000Y-97282000D03*
X145288000Y-94782000D03*
D22*
X108585000Y-124714000D03*
D23*
X106045000Y-124714000D03*
X103505000Y-124714000D03*
D10*
X141645000Y-83820000D03*
X144145000Y-83820000D03*
X121920000Y-125984000D03*
D11*
X111760000Y-125984000D03*
D29*
X146558000Y-87884000D03*
X147574000Y-84074000D03*
X161290000Y-37592000D03*
X125730000Y-38366500D03*
X158750000Y-39116000D03*
X153670000Y-39916000D03*
X143510868Y-40648266D03*
X135890000Y-41414500D03*
X140970000Y-42164000D03*
X138696500Y-63246000D03*
D30*
X108712000Y-39370000D02*
X104775000Y-39370000D01*
X110490000Y-37592000D02*
X108712000Y-39370000D01*
X161290000Y-37592000D02*
X110490000Y-37592000D01*
X106680000Y-48768000D02*
X105918000Y-49530000D01*
X105918000Y-49530000D02*
X104775000Y-49530000D01*
X143502602Y-40640000D02*
X111506000Y-40640000D01*
X111506000Y-40640000D02*
X106680000Y-45466000D01*
X106680000Y-45466000D02*
X106680000Y-48768000D01*
X143510868Y-40648266D02*
X143502602Y-40640000D01*
X106680000Y-59690000D02*
X104775000Y-59690000D01*
X111760000Y-41402000D02*
X107442000Y-45720000D01*
X107442000Y-45720000D02*
X107442000Y-58928000D01*
X135877500Y-41402000D02*
X111760000Y-41402000D01*
X135890000Y-41414500D02*
X135877500Y-41402000D01*
X107442000Y-58928000D02*
X106680000Y-59690000D01*
X106680000Y-64770000D02*
X104775000Y-64770000D01*
X108204000Y-63246000D02*
X106680000Y-64770000D01*
X112014000Y-42164000D02*
X108204000Y-45974000D01*
X135543484Y-42164000D02*
X112014000Y-42164000D01*
X136211016Y-42189500D02*
X135568984Y-42189500D01*
X136236516Y-42164000D02*
X136211016Y-42189500D01*
X140970000Y-42164000D02*
X136236516Y-42164000D01*
X135568984Y-42189500D02*
X135543484Y-42164000D01*
X108204000Y-45974000D02*
X108204000Y-63246000D01*
X107188000Y-41910000D02*
X104775000Y-41910000D01*
X125730000Y-38366500D02*
X110731500Y-38366500D01*
X110731500Y-38366500D02*
X107188000Y-41910000D01*
X105664000Y-44450000D02*
X104775000Y-44450000D01*
X110972500Y-39141500D02*
X105664000Y-44450000D01*
X158724500Y-39141500D02*
X110972500Y-39141500D01*
X158750000Y-39116000D02*
X158724500Y-39141500D01*
X106000000Y-46654000D02*
X105664000Y-46990000D01*
X143442984Y-39865000D02*
X143429984Y-39878000D01*
X143429984Y-39878000D02*
X111252000Y-39878000D01*
X111252000Y-39878000D02*
X106000000Y-45130000D01*
X105664000Y-46990000D02*
X104775000Y-46990000D01*
X153619000Y-39865000D02*
X143442984Y-39865000D01*
X106000000Y-45130000D02*
X106000000Y-46654000D01*
X153670000Y-39916000D02*
X153619000Y-39865000D01*
D31*
X103124000Y-36830000D02*
X104775000Y-36830000D01*
X101991000Y-37963000D02*
X103124000Y-36830000D01*
X103378000Y-67310000D02*
X101991000Y-65923000D01*
X110248000Y-68338000D02*
X109220000Y-67310000D01*
X109220000Y-67310000D02*
X103378000Y-67310000D01*
X114509340Y-86868000D02*
X110248000Y-82606660D01*
X110248000Y-82606660D02*
X110248000Y-68338000D01*
X129266000Y-86868000D02*
X114509340Y-86868000D01*
X101991000Y-65923000D02*
X101991000Y-37963000D01*
X124460000Y-36830000D02*
X137160000Y-36830000D01*
X138430000Y-35560000D02*
X138430000Y-34290000D01*
X123190000Y-35560000D02*
X124460000Y-36830000D01*
X137160000Y-36830000D02*
X138430000Y-35560000D01*
X121920000Y-36830000D02*
X123190000Y-35560000D01*
X104775000Y-36830000D02*
X121920000Y-36830000D01*
X123190000Y-35560000D02*
X123190000Y-35306000D01*
X152400000Y-112014000D02*
X152400000Y-119126000D01*
X152400000Y-119126000D02*
X152870000Y-119596000D01*
X153182000Y-111232000D02*
X152400000Y-112014000D01*
X152870000Y-119596000D02*
X152870000Y-121666000D01*
X154432000Y-111232000D02*
X153182000Y-111232000D01*
D30*
X152850000Y-125496000D02*
X152870000Y-125476000D01*
D31*
X147498000Y-125496000D02*
X152850000Y-125496000D01*
X149027000Y-108458000D02*
X149027000Y-120325000D01*
X149027000Y-120325000D02*
X149098000Y-120396000D01*
X140208000Y-110998000D02*
X140208000Y-120650000D01*
X145288000Y-105918000D02*
X140208000Y-110998000D01*
X149027000Y-105918000D02*
X145288000Y-105918000D01*
X132608000Y-92690000D02*
X132608000Y-120650000D01*
X138684000Y-86614000D02*
X132608000Y-92690000D01*
X138684000Y-63258500D02*
X138684000Y-86614000D01*
X114803000Y-80005000D02*
X115824000Y-81026000D01*
X113284000Y-80005000D02*
X114803000Y-80005000D01*
X115824000Y-81026000D02*
X115824000Y-83566000D01*
X117348000Y-86868000D02*
X129266000Y-86868000D01*
X115824000Y-83566000D02*
X115824000Y-85344000D01*
X115824000Y-85344000D02*
X117348000Y-86868000D01*
D30*
X152281182Y-125750000D02*
X152870000Y-126338818D01*
D31*
X116622057Y-104785000D02*
X130810000Y-90597057D01*
X110490000Y-111760000D02*
X110490000Y-119380000D01*
X129266000Y-86868000D02*
X130810000Y-88412000D01*
X144145000Y-80645000D02*
X144145000Y-77470000D01*
X111760000Y-104785000D02*
X116622057Y-104785000D01*
X144145000Y-83820000D02*
X144145000Y-80645000D01*
X144145000Y-71120000D02*
X144145000Y-67945000D01*
X144145000Y-93639000D02*
X144145000Y-86995000D01*
X130810000Y-90597057D02*
X130810000Y-88412000D01*
X123190000Y-34290000D02*
X123190000Y-35306000D01*
X145288000Y-94782000D02*
X144145000Y-93639000D01*
X144145000Y-74295000D02*
X144145000Y-71120000D01*
X144145000Y-77470000D02*
X144145000Y-74295000D01*
X144145000Y-86995000D02*
X144145000Y-83820000D01*
X144145000Y-67945000D02*
X144145000Y-64770000D01*
X113324000Y-83566000D02*
X112268000Y-83566000D01*
X112268000Y-83566000D02*
X110998000Y-82296000D01*
X112019000Y-67305000D02*
X113284000Y-67305000D01*
X110998000Y-68326000D02*
X112019000Y-67305000D01*
X110998000Y-82296000D02*
X110998000Y-68326000D01*
X168910000Y-59690000D02*
X168910000Y-92964000D01*
X151130000Y-91440000D02*
X151130000Y-88646000D01*
X168910000Y-92964000D02*
X167132000Y-94742000D01*
X167132000Y-94742000D02*
X147828000Y-94742000D01*
X147828000Y-94742000D02*
X145288000Y-97282000D01*
X145288000Y-97282000D02*
X151130000Y-91440000D01*
D32*
X149739000Y-72765000D02*
X159512000Y-72765000D01*
X146558000Y-87884000D02*
X146558000Y-75946000D01*
X146558000Y-75946000D02*
X149739000Y-72765000D01*
X147574000Y-76454000D02*
X148493000Y-75535000D01*
X147574000Y-84074000D02*
X147574000Y-76454000D01*
X148493000Y-75535000D02*
X159512000Y-75535000D01*
X108585000Y-106690000D02*
X108585000Y-105283000D01*
X106025000Y-102723000D02*
X106025000Y-101610000D01*
X108585000Y-105283000D02*
X106025000Y-102723000D01*
D30*
X121920000Y-104785000D02*
X121920000Y-100838000D01*
X137160000Y-85598000D02*
X137160000Y-58873291D01*
X140462000Y-58420000D02*
X140970000Y-58928000D01*
X137160000Y-58873291D02*
X137613291Y-58420000D01*
X140970000Y-58928000D02*
X140970000Y-59690000D01*
X137613291Y-58420000D02*
X140462000Y-58420000D01*
X121920000Y-100838000D02*
X137160000Y-85598000D01*
X121920000Y-122682000D02*
X121920000Y-125984000D01*
X137922000Y-61214000D02*
X137922000Y-86106000D01*
X137922000Y-86106000D02*
X124460000Y-99568000D01*
X124460000Y-99568000D02*
X124460000Y-108458000D01*
X138430000Y-59690000D02*
X138430000Y-60706000D01*
X138430000Y-60706000D02*
X137922000Y-61214000D01*
X124460000Y-108458000D02*
X121920000Y-110998000D01*
X121920000Y-110998000D02*
X121920000Y-122682000D01*
X125725000Y-74925000D02*
X125730000Y-74930000D01*
X120904000Y-74925000D02*
X125725000Y-74925000D01*
X124714000Y-71120000D02*
X123449000Y-72385000D01*
X126905000Y-71533000D02*
X126492000Y-71120000D01*
X126492000Y-71120000D02*
X124714000Y-71120000D01*
X126905000Y-76295000D02*
X126905000Y-71533000D01*
X123449000Y-72385000D02*
X120904000Y-72385000D01*
X125730000Y-77470000D02*
X126905000Y-76295000D01*
X125730000Y-80010000D02*
X127405000Y-78335000D01*
X126746000Y-68580000D02*
X124714000Y-68580000D01*
X127405000Y-78335000D02*
X127405000Y-69239000D01*
X124714000Y-68580000D02*
X123449000Y-69845000D01*
X123449000Y-69845000D02*
X120904000Y-69845000D01*
X127405000Y-69239000D02*
X126746000Y-68580000D01*
X127905000Y-80375000D02*
X127905000Y-67199000D01*
X125730000Y-82550000D02*
X127905000Y-80375000D01*
X127905000Y-67199000D02*
X126746000Y-66040000D01*
X123449000Y-67305000D02*
X120904000Y-67305000D01*
X124714000Y-66040000D02*
X123449000Y-67305000D01*
X126746000Y-66040000D02*
X124714000Y-66040000D01*
X103632000Y-46990000D02*
X104775000Y-46990000D01*
X103632000Y-62230000D02*
X102616000Y-61214000D01*
X102616000Y-48006000D02*
X103632000Y-46990000D01*
X104775000Y-62230000D02*
X103632000Y-62230000D01*
X102616000Y-61214000D02*
X102616000Y-48006000D01*
X104775000Y-57150000D02*
X103632000Y-57150000D01*
X103124000Y-50038000D02*
X103632000Y-49530000D01*
X103124000Y-56642000D02*
X103124000Y-50038000D01*
X103632000Y-57150000D02*
X103124000Y-56642000D01*
X103632000Y-49530000D02*
X104775000Y-49530000D01*
X118745000Y-80005000D02*
X120904000Y-80005000D01*
X148590000Y-59690000D02*
X148590000Y-58420000D01*
X115705000Y-60752894D02*
X115705000Y-76965000D01*
X147590000Y-57420000D02*
X119037894Y-57420000D01*
X148590000Y-58420000D02*
X147590000Y-57420000D01*
X119037894Y-57420000D02*
X115705000Y-60752894D01*
X115705000Y-76965000D02*
X118745000Y-80005000D01*
X116205000Y-76327000D02*
X117343000Y-77465000D01*
X143010000Y-57920000D02*
X119245000Y-57920000D01*
X119245000Y-57920000D02*
X116205000Y-60960000D01*
X143510000Y-59690000D02*
X143510000Y-58420000D01*
X143510000Y-58420000D02*
X143010000Y-57920000D01*
X116205000Y-60960000D02*
X116205000Y-76327000D01*
X117343000Y-77465000D02*
X120904000Y-77465000D01*
X138696500Y-63246000D02*
X138684000Y-63258500D01*
D32*
X106045000Y-120777000D02*
X108585000Y-123317000D01*
X106045000Y-119380000D02*
X106045000Y-120777000D01*
X108585000Y-123317000D02*
X108585000Y-124714000D01*
D31*
X114300000Y-118110000D02*
X113030000Y-119380000D01*
X114300000Y-110998000D02*
X114300000Y-118110000D01*
X106182000Y-93990000D02*
X110490000Y-98298000D01*
X149693000Y-108625000D02*
X149606000Y-108712000D01*
X106045000Y-111760000D02*
X106045000Y-110871000D01*
X106045000Y-110871000D02*
X106680000Y-110236000D01*
X106680000Y-110236000D02*
X113538000Y-110236000D01*
X113538000Y-110236000D02*
X114300000Y-110998000D01*
X110490000Y-98298000D02*
X110490000Y-101600000D01*
X106025000Y-93990000D02*
X106182000Y-93990000D01*
M02*
