G04 #@! TF.GenerationSoftware,KiCad,Pcbnew,7.0.7*
G04 #@! TF.CreationDate,2023-10-29T07:57:56+01:00*
G04 #@! TF.ProjectId,Antenna-Remote,416e7465-6e6e-4656-9e75-6d736368616c,2*
G04 #@! TF.SameCoordinates,Original*
G04 #@! TF.FileFunction,Legend,Top*
G04 #@! TF.FilePolarity,Positive*
%FSLAX46Y46*%
G04 Gerber Fmt 4.6, Leading zero omitted, Abs format (unit mm)*
G04 Created by KiCad (PCBNEW 7.0.7) date 2023-10-29 07:57:56*
%MOMM*%
%LPD*%
G01*
G04 APERTURE LIST*
G04 Aperture macros list*
%AMRoundRect*
0 Rectangle with rounded corners*
0 $1 Rounding radius*
0 $2 $3 $4 $5 $6 $7 $8 $9 X,Y pos of 4 corners*
0 Add a 4 corners polygon primitive as box body*
4,1,4,$2,$3,$4,$5,$6,$7,$8,$9,$2,$3,0*
0 Add four circle primitives for the rounded corners*
1,1,$1+$1,$2,$3*
1,1,$1+$1,$4,$5*
1,1,$1+$1,$6,$7*
1,1,$1+$1,$8,$9*
0 Add four rect primitives between the rounded corners*
20,1,$1+$1,$2,$3,$4,$5,0*
20,1,$1+$1,$4,$5,$6,$7,0*
20,1,$1+$1,$6,$7,$8,$9,0*
20,1,$1+$1,$8,$9,$2,$3,0*%
G04 Aperture macros list end*
%ADD10C,0.150000*%
%ADD11C,0.300000*%
%ADD12C,0.120000*%
%ADD13C,0.127000*%
%ADD14C,0.200000*%
%ADD15C,1.600000*%
%ADD16O,1.600000X1.600000*%
%ADD17R,2.000000X1.905000*%
%ADD18O,2.000000X1.905000*%
%ADD19R,2.200000X2.200000*%
%ADD20O,2.200000X2.200000*%
%ADD21R,1.600000X1.600000*%
%ADD22R,2.000000X2.000000*%
%ADD23C,2.000000*%
%ADD24C,4.000000*%
%ADD25R,1.700000X1.700000*%
%ADD26O,1.700000X1.700000*%
%ADD27R,1.500000X1.500000*%
%ADD28C,1.500000*%
%ADD29RoundRect,0.102000X0.780000X-0.780000X0.780000X0.780000X-0.780000X0.780000X-0.780000X-0.780000X0*%
%ADD30C,1.764000*%
%ADD31C,1.400000*%
%ADD32C,1.270000*%
%ADD33R,1.400000X1.400000*%
G04 APERTURE END LIST*
D10*
X104540207Y-122202580D02*
X104492588Y-122250200D01*
X104492588Y-122250200D02*
X104349731Y-122297819D01*
X104349731Y-122297819D02*
X104254493Y-122297819D01*
X104254493Y-122297819D02*
X104111636Y-122250200D01*
X104111636Y-122250200D02*
X104016398Y-122154961D01*
X104016398Y-122154961D02*
X103968779Y-122059723D01*
X103968779Y-122059723D02*
X103921160Y-121869247D01*
X103921160Y-121869247D02*
X103921160Y-121726390D01*
X103921160Y-121726390D02*
X103968779Y-121535914D01*
X103968779Y-121535914D02*
X104016398Y-121440676D01*
X104016398Y-121440676D02*
X104111636Y-121345438D01*
X104111636Y-121345438D02*
X104254493Y-121297819D01*
X104254493Y-121297819D02*
X104349731Y-121297819D01*
X104349731Y-121297819D02*
X104492588Y-121345438D01*
X104492588Y-121345438D02*
X104540207Y-121393057D01*
X106064017Y-121774009D02*
X106206874Y-121821628D01*
X106206874Y-121821628D02*
X106254493Y-121869247D01*
X106254493Y-121869247D02*
X106302112Y-121964485D01*
X106302112Y-121964485D02*
X106302112Y-122107342D01*
X106302112Y-122107342D02*
X106254493Y-122202580D01*
X106254493Y-122202580D02*
X106206874Y-122250200D01*
X106206874Y-122250200D02*
X106111636Y-122297819D01*
X106111636Y-122297819D02*
X105730684Y-122297819D01*
X105730684Y-122297819D02*
X105730684Y-121297819D01*
X105730684Y-121297819D02*
X106064017Y-121297819D01*
X106064017Y-121297819D02*
X106159255Y-121345438D01*
X106159255Y-121345438D02*
X106206874Y-121393057D01*
X106206874Y-121393057D02*
X106254493Y-121488295D01*
X106254493Y-121488295D02*
X106254493Y-121583533D01*
X106254493Y-121583533D02*
X106206874Y-121678771D01*
X106206874Y-121678771D02*
X106159255Y-121726390D01*
X106159255Y-121726390D02*
X106064017Y-121774009D01*
X106064017Y-121774009D02*
X105730684Y-121774009D01*
X107492589Y-121774009D02*
X107825922Y-121774009D01*
X107968779Y-122297819D02*
X107492589Y-122297819D01*
X107492589Y-122297819D02*
X107492589Y-121297819D01*
X107492589Y-121297819D02*
X107968779Y-121297819D01*
X106561143Y-59144819D02*
X107132571Y-59144819D01*
X106846857Y-60144819D02*
X106846857Y-59144819D01*
X107227810Y-60240057D02*
X107989714Y-60240057D01*
X108799238Y-60049580D02*
X108751619Y-60097200D01*
X108751619Y-60097200D02*
X108608762Y-60144819D01*
X108608762Y-60144819D02*
X108513524Y-60144819D01*
X108513524Y-60144819D02*
X108370667Y-60097200D01*
X108370667Y-60097200D02*
X108275429Y-60001961D01*
X108275429Y-60001961D02*
X108227810Y-59906723D01*
X108227810Y-59906723D02*
X108180191Y-59716247D01*
X108180191Y-59716247D02*
X108180191Y-59573390D01*
X108180191Y-59573390D02*
X108227810Y-59382914D01*
X108227810Y-59382914D02*
X108275429Y-59287676D01*
X108275429Y-59287676D02*
X108370667Y-59192438D01*
X108370667Y-59192438D02*
X108513524Y-59144819D01*
X108513524Y-59144819D02*
X108608762Y-59144819D01*
X108608762Y-59144819D02*
X108751619Y-59192438D01*
X108751619Y-59192438D02*
X108799238Y-59240057D01*
X109180191Y-60097200D02*
X109323048Y-60144819D01*
X109323048Y-60144819D02*
X109561143Y-60144819D01*
X109561143Y-60144819D02*
X109656381Y-60097200D01*
X109656381Y-60097200D02*
X109704000Y-60049580D01*
X109704000Y-60049580D02*
X109751619Y-59954342D01*
X109751619Y-59954342D02*
X109751619Y-59859104D01*
X109751619Y-59859104D02*
X109704000Y-59763866D01*
X109704000Y-59763866D02*
X109656381Y-59716247D01*
X109656381Y-59716247D02*
X109561143Y-59668628D01*
X109561143Y-59668628D02*
X109370667Y-59621009D01*
X109370667Y-59621009D02*
X109275429Y-59573390D01*
X109275429Y-59573390D02*
X109227810Y-59525771D01*
X109227810Y-59525771D02*
X109180191Y-59430533D01*
X109180191Y-59430533D02*
X109180191Y-59335295D01*
X109180191Y-59335295D02*
X109227810Y-59240057D01*
X109227810Y-59240057D02*
X109275429Y-59192438D01*
X109275429Y-59192438D02*
X109370667Y-59144819D01*
X109370667Y-59144819D02*
X109608762Y-59144819D01*
X109608762Y-59144819D02*
X109751619Y-59192438D01*
X106632572Y-55064819D02*
X106632572Y-54064819D01*
X106632572Y-54064819D02*
X106965905Y-54779104D01*
X106965905Y-54779104D02*
X107299238Y-54064819D01*
X107299238Y-54064819D02*
X107299238Y-55064819D01*
X107775429Y-55064819D02*
X107775429Y-54064819D01*
X108204000Y-55017200D02*
X108346857Y-55064819D01*
X108346857Y-55064819D02*
X108584952Y-55064819D01*
X108584952Y-55064819D02*
X108680190Y-55017200D01*
X108680190Y-55017200D02*
X108727809Y-54969580D01*
X108727809Y-54969580D02*
X108775428Y-54874342D01*
X108775428Y-54874342D02*
X108775428Y-54779104D01*
X108775428Y-54779104D02*
X108727809Y-54683866D01*
X108727809Y-54683866D02*
X108680190Y-54636247D01*
X108680190Y-54636247D02*
X108584952Y-54588628D01*
X108584952Y-54588628D02*
X108394476Y-54541009D01*
X108394476Y-54541009D02*
X108299238Y-54493390D01*
X108299238Y-54493390D02*
X108251619Y-54445771D01*
X108251619Y-54445771D02*
X108204000Y-54350533D01*
X108204000Y-54350533D02*
X108204000Y-54255295D01*
X108204000Y-54255295D02*
X108251619Y-54160057D01*
X108251619Y-54160057D02*
X108299238Y-54112438D01*
X108299238Y-54112438D02*
X108394476Y-54064819D01*
X108394476Y-54064819D02*
X108632571Y-54064819D01*
X108632571Y-54064819D02*
X108775428Y-54112438D01*
X109394476Y-54064819D02*
X109584952Y-54064819D01*
X109584952Y-54064819D02*
X109680190Y-54112438D01*
X109680190Y-54112438D02*
X109775428Y-54207676D01*
X109775428Y-54207676D02*
X109823047Y-54398152D01*
X109823047Y-54398152D02*
X109823047Y-54731485D01*
X109823047Y-54731485D02*
X109775428Y-54921961D01*
X109775428Y-54921961D02*
X109680190Y-55017200D01*
X109680190Y-55017200D02*
X109584952Y-55064819D01*
X109584952Y-55064819D02*
X109394476Y-55064819D01*
X109394476Y-55064819D02*
X109299238Y-55017200D01*
X109299238Y-55017200D02*
X109204000Y-54921961D01*
X109204000Y-54921961D02*
X109156381Y-54731485D01*
X109156381Y-54731485D02*
X109156381Y-54398152D01*
X109156381Y-54398152D02*
X109204000Y-54207676D01*
X109204000Y-54207676D02*
X109299238Y-54112438D01*
X109299238Y-54112438D02*
X109394476Y-54064819D01*
X104540207Y-104422580D02*
X104492588Y-104470200D01*
X104492588Y-104470200D02*
X104349731Y-104517819D01*
X104349731Y-104517819D02*
X104254493Y-104517819D01*
X104254493Y-104517819D02*
X104111636Y-104470200D01*
X104111636Y-104470200D02*
X104016398Y-104374961D01*
X104016398Y-104374961D02*
X103968779Y-104279723D01*
X103968779Y-104279723D02*
X103921160Y-104089247D01*
X103921160Y-104089247D02*
X103921160Y-103946390D01*
X103921160Y-103946390D02*
X103968779Y-103755914D01*
X103968779Y-103755914D02*
X104016398Y-103660676D01*
X104016398Y-103660676D02*
X104111636Y-103565438D01*
X104111636Y-103565438D02*
X104254493Y-103517819D01*
X104254493Y-103517819D02*
X104349731Y-103517819D01*
X104349731Y-103517819D02*
X104492588Y-103565438D01*
X104492588Y-103565438D02*
X104540207Y-103613057D01*
X106064017Y-103994009D02*
X106206874Y-104041628D01*
X106206874Y-104041628D02*
X106254493Y-104089247D01*
X106254493Y-104089247D02*
X106302112Y-104184485D01*
X106302112Y-104184485D02*
X106302112Y-104327342D01*
X106302112Y-104327342D02*
X106254493Y-104422580D01*
X106254493Y-104422580D02*
X106206874Y-104470200D01*
X106206874Y-104470200D02*
X106111636Y-104517819D01*
X106111636Y-104517819D02*
X105730684Y-104517819D01*
X105730684Y-104517819D02*
X105730684Y-103517819D01*
X105730684Y-103517819D02*
X106064017Y-103517819D01*
X106064017Y-103517819D02*
X106159255Y-103565438D01*
X106159255Y-103565438D02*
X106206874Y-103613057D01*
X106206874Y-103613057D02*
X106254493Y-103708295D01*
X106254493Y-103708295D02*
X106254493Y-103803533D01*
X106254493Y-103803533D02*
X106206874Y-103898771D01*
X106206874Y-103898771D02*
X106159255Y-103946390D01*
X106159255Y-103946390D02*
X106064017Y-103994009D01*
X106064017Y-103994009D02*
X105730684Y-103994009D01*
X107492589Y-103994009D02*
X107825922Y-103994009D01*
X107968779Y-104517819D02*
X107492589Y-104517819D01*
X107492589Y-104517819D02*
X107492589Y-103517819D01*
X107492589Y-103517819D02*
X107968779Y-103517819D01*
X106640571Y-56604819D02*
X107211999Y-56604819D01*
X106926285Y-57604819D02*
X106926285Y-56604819D01*
X107307238Y-57700057D02*
X108069142Y-57700057D01*
X108878666Y-57509580D02*
X108831047Y-57557200D01*
X108831047Y-57557200D02*
X108688190Y-57604819D01*
X108688190Y-57604819D02*
X108592952Y-57604819D01*
X108592952Y-57604819D02*
X108450095Y-57557200D01*
X108450095Y-57557200D02*
X108354857Y-57461961D01*
X108354857Y-57461961D02*
X108307238Y-57366723D01*
X108307238Y-57366723D02*
X108259619Y-57176247D01*
X108259619Y-57176247D02*
X108259619Y-57033390D01*
X108259619Y-57033390D02*
X108307238Y-56842914D01*
X108307238Y-56842914D02*
X108354857Y-56747676D01*
X108354857Y-56747676D02*
X108450095Y-56652438D01*
X108450095Y-56652438D02*
X108592952Y-56604819D01*
X108592952Y-56604819D02*
X108688190Y-56604819D01*
X108688190Y-56604819D02*
X108831047Y-56652438D01*
X108831047Y-56652438D02*
X108878666Y-56700057D01*
X109783428Y-57604819D02*
X109307238Y-57604819D01*
X109307238Y-57604819D02*
X109307238Y-56604819D01*
X110116762Y-57604819D02*
X110116762Y-56604819D01*
X110688190Y-57604819D02*
X110259619Y-57033390D01*
X110688190Y-56604819D02*
X110116762Y-57176247D01*
X106664286Y-49937200D02*
X106807143Y-49984819D01*
X106807143Y-49984819D02*
X107045238Y-49984819D01*
X107045238Y-49984819D02*
X107140476Y-49937200D01*
X107140476Y-49937200D02*
X107188095Y-49889580D01*
X107188095Y-49889580D02*
X107235714Y-49794342D01*
X107235714Y-49794342D02*
X107235714Y-49699104D01*
X107235714Y-49699104D02*
X107188095Y-49603866D01*
X107188095Y-49603866D02*
X107140476Y-49556247D01*
X107140476Y-49556247D02*
X107045238Y-49508628D01*
X107045238Y-49508628D02*
X106854762Y-49461009D01*
X106854762Y-49461009D02*
X106759524Y-49413390D01*
X106759524Y-49413390D02*
X106711905Y-49365771D01*
X106711905Y-49365771D02*
X106664286Y-49270533D01*
X106664286Y-49270533D02*
X106664286Y-49175295D01*
X106664286Y-49175295D02*
X106711905Y-49080057D01*
X106711905Y-49080057D02*
X106759524Y-49032438D01*
X106759524Y-49032438D02*
X106854762Y-48984819D01*
X106854762Y-48984819D02*
X107092857Y-48984819D01*
X107092857Y-48984819D02*
X107235714Y-49032438D01*
X108235714Y-49889580D02*
X108188095Y-49937200D01*
X108188095Y-49937200D02*
X108045238Y-49984819D01*
X108045238Y-49984819D02*
X107950000Y-49984819D01*
X107950000Y-49984819D02*
X107807143Y-49937200D01*
X107807143Y-49937200D02*
X107711905Y-49841961D01*
X107711905Y-49841961D02*
X107664286Y-49746723D01*
X107664286Y-49746723D02*
X107616667Y-49556247D01*
X107616667Y-49556247D02*
X107616667Y-49413390D01*
X107616667Y-49413390D02*
X107664286Y-49222914D01*
X107664286Y-49222914D02*
X107711905Y-49127676D01*
X107711905Y-49127676D02*
X107807143Y-49032438D01*
X107807143Y-49032438D02*
X107950000Y-48984819D01*
X107950000Y-48984819D02*
X108045238Y-48984819D01*
X108045238Y-48984819D02*
X108188095Y-49032438D01*
X108188095Y-49032438D02*
X108235714Y-49080057D01*
X108664286Y-49984819D02*
X108664286Y-48984819D01*
X109235714Y-49984819D02*
X108807143Y-49413390D01*
X109235714Y-48984819D02*
X108664286Y-49556247D01*
X106727810Y-51524819D02*
X107346857Y-51524819D01*
X107346857Y-51524819D02*
X107013524Y-51905771D01*
X107013524Y-51905771D02*
X107156381Y-51905771D01*
X107156381Y-51905771D02*
X107251619Y-51953390D01*
X107251619Y-51953390D02*
X107299238Y-52001009D01*
X107299238Y-52001009D02*
X107346857Y-52096247D01*
X107346857Y-52096247D02*
X107346857Y-52334342D01*
X107346857Y-52334342D02*
X107299238Y-52429580D01*
X107299238Y-52429580D02*
X107251619Y-52477200D01*
X107251619Y-52477200D02*
X107156381Y-52524819D01*
X107156381Y-52524819D02*
X106870667Y-52524819D01*
X106870667Y-52524819D02*
X106775429Y-52477200D01*
X106775429Y-52477200D02*
X106727810Y-52429580D01*
X107775429Y-52429580D02*
X107823048Y-52477200D01*
X107823048Y-52477200D02*
X107775429Y-52524819D01*
X107775429Y-52524819D02*
X107727810Y-52477200D01*
X107727810Y-52477200D02*
X107775429Y-52429580D01*
X107775429Y-52429580D02*
X107775429Y-52524819D01*
X108156381Y-51524819D02*
X108775428Y-51524819D01*
X108775428Y-51524819D02*
X108442095Y-51905771D01*
X108442095Y-51905771D02*
X108584952Y-51905771D01*
X108584952Y-51905771D02*
X108680190Y-51953390D01*
X108680190Y-51953390D02*
X108727809Y-52001009D01*
X108727809Y-52001009D02*
X108775428Y-52096247D01*
X108775428Y-52096247D02*
X108775428Y-52334342D01*
X108775428Y-52334342D02*
X108727809Y-52429580D01*
X108727809Y-52429580D02*
X108680190Y-52477200D01*
X108680190Y-52477200D02*
X108584952Y-52524819D01*
X108584952Y-52524819D02*
X108299238Y-52524819D01*
X108299238Y-52524819D02*
X108204000Y-52477200D01*
X108204000Y-52477200D02*
X108156381Y-52429580D01*
X109061143Y-51524819D02*
X109394476Y-52524819D01*
X109394476Y-52524819D02*
X109727809Y-51524819D01*
D11*
X103508257Y-91014060D02*
X103508257Y-90442632D01*
X103936828Y-91128346D02*
X102436828Y-90728346D01*
X102436828Y-90728346D02*
X103936828Y-90328346D01*
X103936828Y-89928346D02*
X102436828Y-89928346D01*
X102436828Y-89928346D02*
X103936828Y-89242632D01*
X103936828Y-89242632D02*
X102436828Y-89242632D01*
X102436828Y-88842632D02*
X102436828Y-88156918D01*
X103936828Y-88499775D02*
X102436828Y-88499775D01*
X103151114Y-87756917D02*
X103151114Y-87356917D01*
X103936828Y-87185489D02*
X103936828Y-87756917D01*
X103936828Y-87756917D02*
X102436828Y-87756917D01*
X102436828Y-87756917D02*
X102436828Y-87185489D01*
X103936828Y-86671203D02*
X102436828Y-86671203D01*
X102436828Y-86671203D02*
X103936828Y-85985489D01*
X103936828Y-85985489D02*
X102436828Y-85985489D01*
X103936828Y-85414060D02*
X102436828Y-85414060D01*
X102436828Y-85414060D02*
X103936828Y-84728346D01*
X103936828Y-84728346D02*
X102436828Y-84728346D01*
X103508257Y-84214060D02*
X103508257Y-83642632D01*
X103936828Y-84328346D02*
X102436828Y-83928346D01*
X102436828Y-83928346D02*
X103936828Y-83528346D01*
X103936828Y-81528346D02*
X103222542Y-81928346D01*
X103936828Y-82214060D02*
X102436828Y-82214060D01*
X102436828Y-82214060D02*
X102436828Y-81756917D01*
X102436828Y-81756917D02*
X102508257Y-81642632D01*
X102508257Y-81642632D02*
X102579685Y-81585489D01*
X102579685Y-81585489D02*
X102722542Y-81528346D01*
X102722542Y-81528346D02*
X102936828Y-81528346D01*
X102936828Y-81528346D02*
X103079685Y-81585489D01*
X103079685Y-81585489D02*
X103151114Y-81642632D01*
X103151114Y-81642632D02*
X103222542Y-81756917D01*
X103222542Y-81756917D02*
X103222542Y-82214060D01*
X103151114Y-81014060D02*
X103151114Y-80614060D01*
X103936828Y-80442632D02*
X103936828Y-81014060D01*
X103936828Y-81014060D02*
X102436828Y-81014060D01*
X102436828Y-81014060D02*
X102436828Y-80442632D01*
X103936828Y-79928346D02*
X102436828Y-79928346D01*
X102436828Y-79928346D02*
X103508257Y-79528346D01*
X103508257Y-79528346D02*
X102436828Y-79128346D01*
X102436828Y-79128346D02*
X103936828Y-79128346D01*
X102436828Y-78328346D02*
X102436828Y-78099774D01*
X102436828Y-78099774D02*
X102508257Y-77985489D01*
X102508257Y-77985489D02*
X102651114Y-77871203D01*
X102651114Y-77871203D02*
X102936828Y-77814060D01*
X102936828Y-77814060D02*
X103436828Y-77814060D01*
X103436828Y-77814060D02*
X103722542Y-77871203D01*
X103722542Y-77871203D02*
X103865400Y-77985489D01*
X103865400Y-77985489D02*
X103936828Y-78099774D01*
X103936828Y-78099774D02*
X103936828Y-78328346D01*
X103936828Y-78328346D02*
X103865400Y-78442632D01*
X103865400Y-78442632D02*
X103722542Y-78556917D01*
X103722542Y-78556917D02*
X103436828Y-78614060D01*
X103436828Y-78614060D02*
X102936828Y-78614060D01*
X102936828Y-78614060D02*
X102651114Y-78556917D01*
X102651114Y-78556917D02*
X102508257Y-78442632D01*
X102508257Y-78442632D02*
X102436828Y-78328346D01*
X102436828Y-77471203D02*
X102436828Y-76785489D01*
X103936828Y-77128346D02*
X102436828Y-77128346D01*
X103151114Y-76385488D02*
X103151114Y-75985488D01*
X103936828Y-75814060D02*
X103936828Y-76385488D01*
X103936828Y-76385488D02*
X102436828Y-76385488D01*
X102436828Y-76385488D02*
X102436828Y-75814060D01*
X104851828Y-91128346D02*
X106351828Y-90728346D01*
X106351828Y-90728346D02*
X104851828Y-90328346D01*
X106208971Y-89928346D02*
X106280400Y-89871203D01*
X106280400Y-89871203D02*
X106351828Y-89928346D01*
X106351828Y-89928346D02*
X106280400Y-89985489D01*
X106280400Y-89985489D02*
X106208971Y-89928346D01*
X106208971Y-89928346D02*
X106351828Y-89928346D01*
X104994685Y-88499774D02*
X104923257Y-88442631D01*
X104923257Y-88442631D02*
X104851828Y-88328346D01*
X104851828Y-88328346D02*
X104851828Y-88042631D01*
X104851828Y-88042631D02*
X104923257Y-87928346D01*
X104923257Y-87928346D02*
X104994685Y-87871203D01*
X104994685Y-87871203D02*
X105137542Y-87814060D01*
X105137542Y-87814060D02*
X105280400Y-87814060D01*
X105280400Y-87814060D02*
X105494685Y-87871203D01*
X105494685Y-87871203D02*
X106351828Y-88556917D01*
X106351828Y-88556917D02*
X106351828Y-87814060D01*
X105494685Y-87128346D02*
X105423257Y-87242631D01*
X105423257Y-87242631D02*
X105351828Y-87299774D01*
X105351828Y-87299774D02*
X105208971Y-87356917D01*
X105208971Y-87356917D02*
X105137542Y-87356917D01*
X105137542Y-87356917D02*
X104994685Y-87299774D01*
X104994685Y-87299774D02*
X104923257Y-87242631D01*
X104923257Y-87242631D02*
X104851828Y-87128346D01*
X104851828Y-87128346D02*
X104851828Y-86899774D01*
X104851828Y-86899774D02*
X104923257Y-86785489D01*
X104923257Y-86785489D02*
X104994685Y-86728346D01*
X104994685Y-86728346D02*
X105137542Y-86671203D01*
X105137542Y-86671203D02*
X105208971Y-86671203D01*
X105208971Y-86671203D02*
X105351828Y-86728346D01*
X105351828Y-86728346D02*
X105423257Y-86785489D01*
X105423257Y-86785489D02*
X105494685Y-86899774D01*
X105494685Y-86899774D02*
X105494685Y-87128346D01*
X105494685Y-87128346D02*
X105566114Y-87242631D01*
X105566114Y-87242631D02*
X105637542Y-87299774D01*
X105637542Y-87299774D02*
X105780400Y-87356917D01*
X105780400Y-87356917D02*
X106066114Y-87356917D01*
X106066114Y-87356917D02*
X106208971Y-87299774D01*
X106208971Y-87299774D02*
X106280400Y-87242631D01*
X106280400Y-87242631D02*
X106351828Y-87128346D01*
X106351828Y-87128346D02*
X106351828Y-86899774D01*
X106351828Y-86899774D02*
X106280400Y-86785489D01*
X106280400Y-86785489D02*
X106208971Y-86728346D01*
X106208971Y-86728346D02*
X106066114Y-86671203D01*
X106066114Y-86671203D02*
X105780400Y-86671203D01*
X105780400Y-86671203D02*
X105637542Y-86728346D01*
X105637542Y-86728346D02*
X105566114Y-86785489D01*
X105566114Y-86785489D02*
X105494685Y-86899774D01*
X106208971Y-86156917D02*
X106280400Y-86099774D01*
X106280400Y-86099774D02*
X106351828Y-86156917D01*
X106351828Y-86156917D02*
X106280400Y-86214060D01*
X106280400Y-86214060D02*
X106208971Y-86156917D01*
X106208971Y-86156917D02*
X106351828Y-86156917D01*
X106351828Y-84956917D02*
X106351828Y-85642631D01*
X106351828Y-85299774D02*
X104851828Y-85299774D01*
X104851828Y-85299774D02*
X105066114Y-85414060D01*
X105066114Y-85414060D02*
X105208971Y-85528345D01*
X105208971Y-85528345D02*
X105280400Y-85642631D01*
X104851828Y-84214060D02*
X104851828Y-84099774D01*
X104851828Y-84099774D02*
X104923257Y-83985488D01*
X104923257Y-83985488D02*
X104994685Y-83928346D01*
X104994685Y-83928346D02*
X105137542Y-83871203D01*
X105137542Y-83871203D02*
X105423257Y-83814060D01*
X105423257Y-83814060D02*
X105780400Y-83814060D01*
X105780400Y-83814060D02*
X106066114Y-83871203D01*
X106066114Y-83871203D02*
X106208971Y-83928346D01*
X106208971Y-83928346D02*
X106280400Y-83985488D01*
X106280400Y-83985488D02*
X106351828Y-84099774D01*
X106351828Y-84099774D02*
X106351828Y-84214060D01*
X106351828Y-84214060D02*
X106280400Y-84328346D01*
X106280400Y-84328346D02*
X106208971Y-84385488D01*
X106208971Y-84385488D02*
X106066114Y-84442631D01*
X106066114Y-84442631D02*
X105780400Y-84499774D01*
X105780400Y-84499774D02*
X105423257Y-84499774D01*
X105423257Y-84499774D02*
X105137542Y-84442631D01*
X105137542Y-84442631D02*
X104994685Y-84385488D01*
X104994685Y-84385488D02*
X104923257Y-84328346D01*
X104923257Y-84328346D02*
X104851828Y-84214060D01*
X106208971Y-83299774D02*
X106280400Y-83242631D01*
X106280400Y-83242631D02*
X106351828Y-83299774D01*
X106351828Y-83299774D02*
X106280400Y-83356917D01*
X106280400Y-83356917D02*
X106208971Y-83299774D01*
X106208971Y-83299774D02*
X106351828Y-83299774D01*
X104994685Y-82785488D02*
X104923257Y-82728345D01*
X104923257Y-82728345D02*
X104851828Y-82614060D01*
X104851828Y-82614060D02*
X104851828Y-82328345D01*
X104851828Y-82328345D02*
X104923257Y-82214060D01*
X104923257Y-82214060D02*
X104994685Y-82156917D01*
X104994685Y-82156917D02*
X105137542Y-82099774D01*
X105137542Y-82099774D02*
X105280400Y-82099774D01*
X105280400Y-82099774D02*
X105494685Y-82156917D01*
X105494685Y-82156917D02*
X106351828Y-82842631D01*
X106351828Y-82842631D02*
X106351828Y-82099774D01*
X104851828Y-81356917D02*
X104851828Y-81242631D01*
X104851828Y-81242631D02*
X104923257Y-81128345D01*
X104923257Y-81128345D02*
X104994685Y-81071203D01*
X104994685Y-81071203D02*
X105137542Y-81014060D01*
X105137542Y-81014060D02*
X105423257Y-80956917D01*
X105423257Y-80956917D02*
X105780400Y-80956917D01*
X105780400Y-80956917D02*
X106066114Y-81014060D01*
X106066114Y-81014060D02*
X106208971Y-81071203D01*
X106208971Y-81071203D02*
X106280400Y-81128345D01*
X106280400Y-81128345D02*
X106351828Y-81242631D01*
X106351828Y-81242631D02*
X106351828Y-81356917D01*
X106351828Y-81356917D02*
X106280400Y-81471203D01*
X106280400Y-81471203D02*
X106208971Y-81528345D01*
X106208971Y-81528345D02*
X106066114Y-81585488D01*
X106066114Y-81585488D02*
X105780400Y-81642631D01*
X105780400Y-81642631D02*
X105423257Y-81642631D01*
X105423257Y-81642631D02*
X105137542Y-81585488D01*
X105137542Y-81585488D02*
X104994685Y-81528345D01*
X104994685Y-81528345D02*
X104923257Y-81471203D01*
X104923257Y-81471203D02*
X104851828Y-81356917D01*
X104994685Y-80499774D02*
X104923257Y-80442631D01*
X104923257Y-80442631D02*
X104851828Y-80328346D01*
X104851828Y-80328346D02*
X104851828Y-80042631D01*
X104851828Y-80042631D02*
X104923257Y-79928346D01*
X104923257Y-79928346D02*
X104994685Y-79871203D01*
X104994685Y-79871203D02*
X105137542Y-79814060D01*
X105137542Y-79814060D02*
X105280400Y-79814060D01*
X105280400Y-79814060D02*
X105494685Y-79871203D01*
X105494685Y-79871203D02*
X106351828Y-80556917D01*
X106351828Y-80556917D02*
X106351828Y-79814060D01*
X104851828Y-79414060D02*
X104851828Y-78671203D01*
X104851828Y-78671203D02*
X105423257Y-79071203D01*
X105423257Y-79071203D02*
X105423257Y-78899774D01*
X105423257Y-78899774D02*
X105494685Y-78785489D01*
X105494685Y-78785489D02*
X105566114Y-78728346D01*
X105566114Y-78728346D02*
X105708971Y-78671203D01*
X105708971Y-78671203D02*
X106066114Y-78671203D01*
X106066114Y-78671203D02*
X106208971Y-78728346D01*
X106208971Y-78728346D02*
X106280400Y-78785489D01*
X106280400Y-78785489D02*
X106351828Y-78899774D01*
X106351828Y-78899774D02*
X106351828Y-79242631D01*
X106351828Y-79242631D02*
X106280400Y-79356917D01*
X106280400Y-79356917D02*
X106208971Y-79414060D01*
X107981114Y-90556917D02*
X108052542Y-90385489D01*
X108052542Y-90385489D02*
X108123971Y-90328346D01*
X108123971Y-90328346D02*
X108266828Y-90271203D01*
X108266828Y-90271203D02*
X108481114Y-90271203D01*
X108481114Y-90271203D02*
X108623971Y-90328346D01*
X108623971Y-90328346D02*
X108695400Y-90385489D01*
X108695400Y-90385489D02*
X108766828Y-90499774D01*
X108766828Y-90499774D02*
X108766828Y-90956917D01*
X108766828Y-90956917D02*
X107266828Y-90956917D01*
X107266828Y-90956917D02*
X107266828Y-90556917D01*
X107266828Y-90556917D02*
X107338257Y-90442632D01*
X107338257Y-90442632D02*
X107409685Y-90385489D01*
X107409685Y-90385489D02*
X107552542Y-90328346D01*
X107552542Y-90328346D02*
X107695400Y-90328346D01*
X107695400Y-90328346D02*
X107838257Y-90385489D01*
X107838257Y-90385489D02*
X107909685Y-90442632D01*
X107909685Y-90442632D02*
X107981114Y-90556917D01*
X107981114Y-90556917D02*
X107981114Y-90956917D01*
X108052542Y-89528346D02*
X108766828Y-89528346D01*
X107266828Y-89928346D02*
X108052542Y-89528346D01*
X108052542Y-89528346D02*
X107266828Y-89128346D01*
X108766828Y-87814060D02*
X107266828Y-87814060D01*
X107266828Y-87814060D02*
X107266828Y-87528346D01*
X107266828Y-87528346D02*
X107338257Y-87356917D01*
X107338257Y-87356917D02*
X107481114Y-87242632D01*
X107481114Y-87242632D02*
X107623971Y-87185489D01*
X107623971Y-87185489D02*
X107909685Y-87128346D01*
X107909685Y-87128346D02*
X108123971Y-87128346D01*
X108123971Y-87128346D02*
X108409685Y-87185489D01*
X108409685Y-87185489D02*
X108552542Y-87242632D01*
X108552542Y-87242632D02*
X108695400Y-87356917D01*
X108695400Y-87356917D02*
X108766828Y-87528346D01*
X108766828Y-87528346D02*
X108766828Y-87814060D01*
X107981114Y-86214060D02*
X107981114Y-86614060D01*
X108766828Y-86614060D02*
X107266828Y-86614060D01*
X107266828Y-86614060D02*
X107266828Y-86042632D01*
X107266828Y-85699775D02*
X107266828Y-84899775D01*
X107266828Y-84899775D02*
X108766828Y-85414061D01*
X107266828Y-84556918D02*
X107266828Y-83756918D01*
X107266828Y-83756918D02*
X108766828Y-84556918D01*
X108766828Y-84556918D02*
X108766828Y-83756918D01*
X107266828Y-83414061D02*
X107266828Y-82614061D01*
X107266828Y-82614061D02*
X108766828Y-83414061D01*
X108766828Y-83414061D02*
X108766828Y-82614061D01*
D10*
X107259618Y-42364819D02*
X106926285Y-41888628D01*
X106688190Y-42364819D02*
X106688190Y-41364819D01*
X106688190Y-41364819D02*
X107069142Y-41364819D01*
X107069142Y-41364819D02*
X107164380Y-41412438D01*
X107164380Y-41412438D02*
X107211999Y-41460057D01*
X107211999Y-41460057D02*
X107259618Y-41555295D01*
X107259618Y-41555295D02*
X107259618Y-41698152D01*
X107259618Y-41698152D02*
X107211999Y-41793390D01*
X107211999Y-41793390D02*
X107164380Y-41841009D01*
X107164380Y-41841009D02*
X107069142Y-41888628D01*
X107069142Y-41888628D02*
X106688190Y-41888628D01*
X107688190Y-41841009D02*
X108021523Y-41841009D01*
X108164380Y-42364819D02*
X107688190Y-42364819D01*
X107688190Y-42364819D02*
X107688190Y-41364819D01*
X107688190Y-41364819D02*
X108164380Y-41364819D01*
X108545333Y-42317200D02*
X108688190Y-42364819D01*
X108688190Y-42364819D02*
X108926285Y-42364819D01*
X108926285Y-42364819D02*
X109021523Y-42317200D01*
X109021523Y-42317200D02*
X109069142Y-42269580D01*
X109069142Y-42269580D02*
X109116761Y-42174342D01*
X109116761Y-42174342D02*
X109116761Y-42079104D01*
X109116761Y-42079104D02*
X109069142Y-41983866D01*
X109069142Y-41983866D02*
X109021523Y-41936247D01*
X109021523Y-41936247D02*
X108926285Y-41888628D01*
X108926285Y-41888628D02*
X108735809Y-41841009D01*
X108735809Y-41841009D02*
X108640571Y-41793390D01*
X108640571Y-41793390D02*
X108592952Y-41745771D01*
X108592952Y-41745771D02*
X108545333Y-41650533D01*
X108545333Y-41650533D02*
X108545333Y-41555295D01*
X108545333Y-41555295D02*
X108592952Y-41460057D01*
X108592952Y-41460057D02*
X108640571Y-41412438D01*
X108640571Y-41412438D02*
X108735809Y-41364819D01*
X108735809Y-41364819D02*
X108973904Y-41364819D01*
X108973904Y-41364819D02*
X109116761Y-41412438D01*
X109545333Y-41841009D02*
X109878666Y-41841009D01*
X110021523Y-42364819D02*
X109545333Y-42364819D01*
X109545333Y-42364819D02*
X109545333Y-41364819D01*
X109545333Y-41364819D02*
X110021523Y-41364819D01*
X110307238Y-41364819D02*
X110878666Y-41364819D01*
X110592952Y-42364819D02*
X110592952Y-41364819D01*
G36*
X105155469Y-72066311D02*
G01*
X106176160Y-74064950D01*
X108792001Y-74064950D01*
X108792001Y-75065124D01*
X102007911Y-75065124D01*
X102007911Y-73056227D01*
X102992698Y-73056227D01*
X102992698Y-74064950D01*
X105064855Y-74064950D01*
X104548525Y-73056227D01*
X102992698Y-73056227D01*
X102007911Y-73056227D01*
X102008860Y-72977073D01*
X102011705Y-72901606D01*
X102016446Y-72829825D01*
X102023085Y-72761731D01*
X102036599Y-72666502D01*
X102054380Y-72579568D01*
X102076429Y-72500928D01*
X102102746Y-72430584D01*
X102133330Y-72368534D01*
X102180748Y-72298703D01*
X102235752Y-72243619D01*
X102250689Y-72232152D01*
X102315043Y-72190878D01*
X102387571Y-72155108D01*
X102468275Y-72124841D01*
X102534166Y-72105752D01*
X102604657Y-72089759D01*
X102679745Y-72076861D01*
X102759431Y-72067059D01*
X102843716Y-72060352D01*
X102932598Y-72056740D01*
X102994408Y-72056053D01*
X105155469Y-72066311D01*
G37*
G36*
X102007911Y-71365334D02*
G01*
X102007911Y-68708460D01*
X102992698Y-68708460D01*
X102992698Y-70365159D01*
X105068274Y-70365159D01*
X104196327Y-68708460D01*
X105305922Y-68708460D01*
X106177869Y-70365159D01*
X107807213Y-70365159D01*
X107807213Y-68708460D01*
X108792001Y-68708460D01*
X108792001Y-71365334D01*
X102007911Y-71365334D01*
G37*
X106727810Y-33744819D02*
X107346857Y-33744819D01*
X107346857Y-33744819D02*
X107013524Y-34125771D01*
X107013524Y-34125771D02*
X107156381Y-34125771D01*
X107156381Y-34125771D02*
X107251619Y-34173390D01*
X107251619Y-34173390D02*
X107299238Y-34221009D01*
X107299238Y-34221009D02*
X107346857Y-34316247D01*
X107346857Y-34316247D02*
X107346857Y-34554342D01*
X107346857Y-34554342D02*
X107299238Y-34649580D01*
X107299238Y-34649580D02*
X107251619Y-34697200D01*
X107251619Y-34697200D02*
X107156381Y-34744819D01*
X107156381Y-34744819D02*
X106870667Y-34744819D01*
X106870667Y-34744819D02*
X106775429Y-34697200D01*
X106775429Y-34697200D02*
X106727810Y-34649580D01*
X107775429Y-34649580D02*
X107823048Y-34697200D01*
X107823048Y-34697200D02*
X107775429Y-34744819D01*
X107775429Y-34744819D02*
X107727810Y-34697200D01*
X107727810Y-34697200D02*
X107775429Y-34649580D01*
X107775429Y-34649580D02*
X107775429Y-34744819D01*
X108156381Y-33744819D02*
X108775428Y-33744819D01*
X108775428Y-33744819D02*
X108442095Y-34125771D01*
X108442095Y-34125771D02*
X108584952Y-34125771D01*
X108584952Y-34125771D02*
X108680190Y-34173390D01*
X108680190Y-34173390D02*
X108727809Y-34221009D01*
X108727809Y-34221009D02*
X108775428Y-34316247D01*
X108775428Y-34316247D02*
X108775428Y-34554342D01*
X108775428Y-34554342D02*
X108727809Y-34649580D01*
X108727809Y-34649580D02*
X108680190Y-34697200D01*
X108680190Y-34697200D02*
X108584952Y-34744819D01*
X108584952Y-34744819D02*
X108299238Y-34744819D01*
X108299238Y-34744819D02*
X108204000Y-34697200D01*
X108204000Y-34697200D02*
X108156381Y-34649580D01*
X109061143Y-33744819D02*
X109394476Y-34744819D01*
X109394476Y-34744819D02*
X109727809Y-33744819D01*
D11*
X130602510Y-45876114D02*
X131102510Y-45876114D01*
X131316796Y-46661828D02*
X130602510Y-46661828D01*
X130602510Y-46661828D02*
X130602510Y-45161828D01*
X130602510Y-45161828D02*
X131316796Y-45161828D01*
X131888225Y-46590400D02*
X132102511Y-46661828D01*
X132102511Y-46661828D02*
X132459653Y-46661828D01*
X132459653Y-46661828D02*
X132602511Y-46590400D01*
X132602511Y-46590400D02*
X132673939Y-46518971D01*
X132673939Y-46518971D02*
X132745368Y-46376114D01*
X132745368Y-46376114D02*
X132745368Y-46233257D01*
X132745368Y-46233257D02*
X132673939Y-46090400D01*
X132673939Y-46090400D02*
X132602511Y-46018971D01*
X132602511Y-46018971D02*
X132459653Y-45947542D01*
X132459653Y-45947542D02*
X132173939Y-45876114D01*
X132173939Y-45876114D02*
X132031082Y-45804685D01*
X132031082Y-45804685D02*
X131959653Y-45733257D01*
X131959653Y-45733257D02*
X131888225Y-45590400D01*
X131888225Y-45590400D02*
X131888225Y-45447542D01*
X131888225Y-45447542D02*
X131959653Y-45304685D01*
X131959653Y-45304685D02*
X132031082Y-45233257D01*
X132031082Y-45233257D02*
X132173939Y-45161828D01*
X132173939Y-45161828D02*
X132531082Y-45161828D01*
X132531082Y-45161828D02*
X132745368Y-45233257D01*
X133388224Y-46661828D02*
X133388224Y-45161828D01*
X133388224Y-45161828D02*
X133959653Y-45161828D01*
X133959653Y-45161828D02*
X134102510Y-45233257D01*
X134102510Y-45233257D02*
X134173939Y-45304685D01*
X134173939Y-45304685D02*
X134245367Y-45447542D01*
X134245367Y-45447542D02*
X134245367Y-45661828D01*
X134245367Y-45661828D02*
X134173939Y-45804685D01*
X134173939Y-45804685D02*
X134102510Y-45876114D01*
X134102510Y-45876114D02*
X133959653Y-45947542D01*
X133959653Y-45947542D02*
X133388224Y-45947542D01*
X134888224Y-46090400D02*
X136031082Y-46090400D01*
X136602510Y-45161828D02*
X137531082Y-45161828D01*
X137531082Y-45161828D02*
X137031082Y-45733257D01*
X137031082Y-45733257D02*
X137245367Y-45733257D01*
X137245367Y-45733257D02*
X137388225Y-45804685D01*
X137388225Y-45804685D02*
X137459653Y-45876114D01*
X137459653Y-45876114D02*
X137531082Y-46018971D01*
X137531082Y-46018971D02*
X137531082Y-46376114D01*
X137531082Y-46376114D02*
X137459653Y-46518971D01*
X137459653Y-46518971D02*
X137388225Y-46590400D01*
X137388225Y-46590400D02*
X137245367Y-46661828D01*
X137245367Y-46661828D02*
X136816796Y-46661828D01*
X136816796Y-46661828D02*
X136673939Y-46590400D01*
X136673939Y-46590400D02*
X136602510Y-46518971D01*
X138102510Y-45304685D02*
X138173938Y-45233257D01*
X138173938Y-45233257D02*
X138316796Y-45161828D01*
X138316796Y-45161828D02*
X138673938Y-45161828D01*
X138673938Y-45161828D02*
X138816796Y-45233257D01*
X138816796Y-45233257D02*
X138888224Y-45304685D01*
X138888224Y-45304685D02*
X138959653Y-45447542D01*
X138959653Y-45447542D02*
X138959653Y-45590400D01*
X138959653Y-45590400D02*
X138888224Y-45804685D01*
X138888224Y-45804685D02*
X138031081Y-46661828D01*
X138031081Y-46661828D02*
X138959653Y-46661828D01*
X140745366Y-46661828D02*
X140745366Y-45161828D01*
X140745366Y-45161828D02*
X141102509Y-45161828D01*
X141102509Y-45161828D02*
X141316795Y-45233257D01*
X141316795Y-45233257D02*
X141459652Y-45376114D01*
X141459652Y-45376114D02*
X141531081Y-45518971D01*
X141531081Y-45518971D02*
X141602509Y-45804685D01*
X141602509Y-45804685D02*
X141602509Y-46018971D01*
X141602509Y-46018971D02*
X141531081Y-46304685D01*
X141531081Y-46304685D02*
X141459652Y-46447542D01*
X141459652Y-46447542D02*
X141316795Y-46590400D01*
X141316795Y-46590400D02*
X141102509Y-46661828D01*
X141102509Y-46661828D02*
X140745366Y-46661828D01*
X142816795Y-46590400D02*
X142673938Y-46661828D01*
X142673938Y-46661828D02*
X142388224Y-46661828D01*
X142388224Y-46661828D02*
X142245366Y-46590400D01*
X142245366Y-46590400D02*
X142173938Y-46447542D01*
X142173938Y-46447542D02*
X142173938Y-45876114D01*
X142173938Y-45876114D02*
X142245366Y-45733257D01*
X142245366Y-45733257D02*
X142388224Y-45661828D01*
X142388224Y-45661828D02*
X142673938Y-45661828D01*
X142673938Y-45661828D02*
X142816795Y-45733257D01*
X142816795Y-45733257D02*
X142888224Y-45876114D01*
X142888224Y-45876114D02*
X142888224Y-46018971D01*
X142888224Y-46018971D02*
X142173938Y-46161828D01*
X143388223Y-45661828D02*
X143745366Y-46661828D01*
X143745366Y-46661828D02*
X144102509Y-45661828D01*
X145816794Y-46661828D02*
X145816794Y-45161828D01*
X146673937Y-46661828D02*
X146031080Y-45804685D01*
X146673937Y-45161828D02*
X145816794Y-46018971D01*
X147316794Y-46661828D02*
X147316794Y-45661828D01*
X147316794Y-45161828D02*
X147245366Y-45233257D01*
X147245366Y-45233257D02*
X147316794Y-45304685D01*
X147316794Y-45304685D02*
X147388223Y-45233257D01*
X147388223Y-45233257D02*
X147316794Y-45161828D01*
X147316794Y-45161828D02*
X147316794Y-45304685D01*
X147816795Y-45661828D02*
X148388223Y-45661828D01*
X148031080Y-45161828D02*
X148031080Y-46447542D01*
X148031080Y-46447542D02*
X148102509Y-46590400D01*
X148102509Y-46590400D02*
X148245366Y-46661828D01*
X148245366Y-46661828D02*
X148388223Y-46661828D01*
X150888223Y-46518971D02*
X150816795Y-46590400D01*
X150816795Y-46590400D02*
X150602509Y-46661828D01*
X150602509Y-46661828D02*
X150459652Y-46661828D01*
X150459652Y-46661828D02*
X150245366Y-46590400D01*
X150245366Y-46590400D02*
X150102509Y-46447542D01*
X150102509Y-46447542D02*
X150031080Y-46304685D01*
X150031080Y-46304685D02*
X149959652Y-46018971D01*
X149959652Y-46018971D02*
X149959652Y-45804685D01*
X149959652Y-45804685D02*
X150031080Y-45518971D01*
X150031080Y-45518971D02*
X150102509Y-45376114D01*
X150102509Y-45376114D02*
X150245366Y-45233257D01*
X150245366Y-45233257D02*
X150459652Y-45161828D01*
X150459652Y-45161828D02*
X150602509Y-45161828D01*
X150602509Y-45161828D02*
X150816795Y-45233257D01*
X150816795Y-45233257D02*
X150888223Y-45304685D01*
X152459652Y-45161828D02*
X152959652Y-46661828D01*
X152959652Y-46661828D02*
X153459652Y-45161828D01*
X154602509Y-45661828D02*
X154602509Y-46661828D01*
X154245366Y-45090400D02*
X153888223Y-46161828D01*
X153888223Y-46161828D02*
X154816794Y-46161828D01*
X130602510Y-49076828D02*
X130602510Y-47576828D01*
X130602510Y-48148257D02*
X130745368Y-48076828D01*
X130745368Y-48076828D02*
X131031082Y-48076828D01*
X131031082Y-48076828D02*
X131173939Y-48148257D01*
X131173939Y-48148257D02*
X131245368Y-48219685D01*
X131245368Y-48219685D02*
X131316796Y-48362542D01*
X131316796Y-48362542D02*
X131316796Y-48791114D01*
X131316796Y-48791114D02*
X131245368Y-48933971D01*
X131245368Y-48933971D02*
X131173939Y-49005400D01*
X131173939Y-49005400D02*
X131031082Y-49076828D01*
X131031082Y-49076828D02*
X130745368Y-49076828D01*
X130745368Y-49076828D02*
X130602510Y-49005400D01*
X131816796Y-48076828D02*
X132173939Y-49076828D01*
X132531082Y-48076828D02*
X132173939Y-49076828D01*
X132173939Y-49076828D02*
X132031082Y-49433971D01*
X132031082Y-49433971D02*
X131959653Y-49505400D01*
X131959653Y-49505400D02*
X131816796Y-49576828D01*
X134173939Y-48648257D02*
X134888225Y-48648257D01*
X134031082Y-49076828D02*
X134531082Y-47576828D01*
X134531082Y-47576828D02*
X135031082Y-49076828D01*
X135388224Y-47576828D02*
X136388224Y-47576828D01*
X136388224Y-47576828D02*
X135388224Y-49076828D01*
X135388224Y-49076828D02*
X136388224Y-49076828D01*
X136959652Y-48505400D02*
X138102510Y-48505400D01*
X138816795Y-49076828D02*
X138816795Y-47576828D01*
X138816795Y-47576828D02*
X139173938Y-47576828D01*
X139173938Y-47576828D02*
X139388224Y-47648257D01*
X139388224Y-47648257D02*
X139531081Y-47791114D01*
X139531081Y-47791114D02*
X139602510Y-47933971D01*
X139602510Y-47933971D02*
X139673938Y-48219685D01*
X139673938Y-48219685D02*
X139673938Y-48433971D01*
X139673938Y-48433971D02*
X139602510Y-48719685D01*
X139602510Y-48719685D02*
X139531081Y-48862542D01*
X139531081Y-48862542D02*
X139388224Y-49005400D01*
X139388224Y-49005400D02*
X139173938Y-49076828D01*
X139173938Y-49076828D02*
X138816795Y-49076828D01*
X140888224Y-49005400D02*
X140745367Y-49076828D01*
X140745367Y-49076828D02*
X140459653Y-49076828D01*
X140459653Y-49076828D02*
X140316795Y-49005400D01*
X140316795Y-49005400D02*
X140245367Y-48862542D01*
X140245367Y-48862542D02*
X140245367Y-48291114D01*
X140245367Y-48291114D02*
X140316795Y-48148257D01*
X140316795Y-48148257D02*
X140459653Y-48076828D01*
X140459653Y-48076828D02*
X140745367Y-48076828D01*
X140745367Y-48076828D02*
X140888224Y-48148257D01*
X140888224Y-48148257D02*
X140959653Y-48291114D01*
X140959653Y-48291114D02*
X140959653Y-48433971D01*
X140959653Y-48433971D02*
X140245367Y-48576828D01*
X141816795Y-49076828D02*
X141673938Y-49005400D01*
X141673938Y-49005400D02*
X141602509Y-48862542D01*
X141602509Y-48862542D02*
X141602509Y-47576828D01*
X142388223Y-49076828D02*
X142388223Y-48076828D01*
X142388223Y-47576828D02*
X142316795Y-47648257D01*
X142316795Y-47648257D02*
X142388223Y-47719685D01*
X142388223Y-47719685D02*
X142459652Y-47648257D01*
X142459652Y-47648257D02*
X142388223Y-47576828D01*
X142388223Y-47576828D02*
X142388223Y-47719685D01*
X142959652Y-48076828D02*
X143316795Y-49076828D01*
X143316795Y-49076828D02*
X143673938Y-48076828D01*
X144816795Y-49005400D02*
X144673938Y-49076828D01*
X144673938Y-49076828D02*
X144388224Y-49076828D01*
X144388224Y-49076828D02*
X144245366Y-49005400D01*
X144245366Y-49005400D02*
X144173938Y-48862542D01*
X144173938Y-48862542D02*
X144173938Y-48291114D01*
X144173938Y-48291114D02*
X144245366Y-48148257D01*
X144245366Y-48148257D02*
X144388224Y-48076828D01*
X144388224Y-48076828D02*
X144673938Y-48076828D01*
X144673938Y-48076828D02*
X144816795Y-48148257D01*
X144816795Y-48148257D02*
X144888224Y-48291114D01*
X144888224Y-48291114D02*
X144888224Y-48433971D01*
X144888224Y-48433971D02*
X144173938Y-48576828D01*
X145531080Y-49076828D02*
X145531080Y-48076828D01*
X145531080Y-48362542D02*
X145602509Y-48219685D01*
X145602509Y-48219685D02*
X145673938Y-48148257D01*
X145673938Y-48148257D02*
X145816795Y-48076828D01*
X145816795Y-48076828D02*
X145959652Y-48076828D01*
X146316794Y-48076828D02*
X146673937Y-49076828D01*
X147031080Y-48076828D02*
X146673937Y-49076828D01*
X146673937Y-49076828D02*
X146531080Y-49433971D01*
X146531080Y-49433971D02*
X146459651Y-49505400D01*
X146459651Y-49505400D02*
X146316794Y-49576828D01*
D10*
X106513524Y-64224819D02*
X107084952Y-64224819D01*
X106799238Y-65224819D02*
X106799238Y-64224819D01*
X107180191Y-65320057D02*
X107942095Y-65320057D01*
X108180191Y-65224819D02*
X108180191Y-64224819D01*
X108180191Y-64224819D02*
X108418286Y-64224819D01*
X108418286Y-64224819D02*
X108561143Y-64272438D01*
X108561143Y-64272438D02*
X108656381Y-64367676D01*
X108656381Y-64367676D02*
X108704000Y-64462914D01*
X108704000Y-64462914D02*
X108751619Y-64653390D01*
X108751619Y-64653390D02*
X108751619Y-64796247D01*
X108751619Y-64796247D02*
X108704000Y-64986723D01*
X108704000Y-64986723D02*
X108656381Y-65081961D01*
X108656381Y-65081961D02*
X108561143Y-65177200D01*
X108561143Y-65177200D02*
X108418286Y-65224819D01*
X108418286Y-65224819D02*
X108180191Y-65224819D01*
X109370667Y-64224819D02*
X109561143Y-64224819D01*
X109561143Y-64224819D02*
X109656381Y-64272438D01*
X109656381Y-64272438D02*
X109751619Y-64367676D01*
X109751619Y-64367676D02*
X109799238Y-64558152D01*
X109799238Y-64558152D02*
X109799238Y-64891485D01*
X109799238Y-64891485D02*
X109751619Y-65081961D01*
X109751619Y-65081961D02*
X109656381Y-65177200D01*
X109656381Y-65177200D02*
X109561143Y-65224819D01*
X109561143Y-65224819D02*
X109370667Y-65224819D01*
X109370667Y-65224819D02*
X109275429Y-65177200D01*
X109275429Y-65177200D02*
X109180191Y-65081961D01*
X109180191Y-65081961D02*
X109132572Y-64891485D01*
X109132572Y-64891485D02*
X109132572Y-64558152D01*
X109132572Y-64558152D02*
X109180191Y-64367676D01*
X109180191Y-64367676D02*
X109275429Y-64272438D01*
X109275429Y-64272438D02*
X109370667Y-64224819D01*
X106632572Y-47444819D02*
X106632572Y-46444819D01*
X106632572Y-46444819D02*
X106965905Y-47159104D01*
X106965905Y-47159104D02*
X107299238Y-46444819D01*
X107299238Y-46444819D02*
X107299238Y-47444819D01*
X107965905Y-46444819D02*
X108156381Y-46444819D01*
X108156381Y-46444819D02*
X108251619Y-46492438D01*
X108251619Y-46492438D02*
X108346857Y-46587676D01*
X108346857Y-46587676D02*
X108394476Y-46778152D01*
X108394476Y-46778152D02*
X108394476Y-47111485D01*
X108394476Y-47111485D02*
X108346857Y-47301961D01*
X108346857Y-47301961D02*
X108251619Y-47397200D01*
X108251619Y-47397200D02*
X108156381Y-47444819D01*
X108156381Y-47444819D02*
X107965905Y-47444819D01*
X107965905Y-47444819D02*
X107870667Y-47397200D01*
X107870667Y-47397200D02*
X107775429Y-47301961D01*
X107775429Y-47301961D02*
X107727810Y-47111485D01*
X107727810Y-47111485D02*
X107727810Y-46778152D01*
X107727810Y-46778152D02*
X107775429Y-46587676D01*
X107775429Y-46587676D02*
X107870667Y-46492438D01*
X107870667Y-46492438D02*
X107965905Y-46444819D01*
X108775429Y-47397200D02*
X108918286Y-47444819D01*
X108918286Y-47444819D02*
X109156381Y-47444819D01*
X109156381Y-47444819D02*
X109251619Y-47397200D01*
X109251619Y-47397200D02*
X109299238Y-47349580D01*
X109299238Y-47349580D02*
X109346857Y-47254342D01*
X109346857Y-47254342D02*
X109346857Y-47159104D01*
X109346857Y-47159104D02*
X109299238Y-47063866D01*
X109299238Y-47063866D02*
X109251619Y-47016247D01*
X109251619Y-47016247D02*
X109156381Y-46968628D01*
X109156381Y-46968628D02*
X108965905Y-46921009D01*
X108965905Y-46921009D02*
X108870667Y-46873390D01*
X108870667Y-46873390D02*
X108823048Y-46825771D01*
X108823048Y-46825771D02*
X108775429Y-46730533D01*
X108775429Y-46730533D02*
X108775429Y-46635295D01*
X108775429Y-46635295D02*
X108823048Y-46540057D01*
X108823048Y-46540057D02*
X108870667Y-46492438D01*
X108870667Y-46492438D02*
X108965905Y-46444819D01*
X108965905Y-46444819D02*
X109204000Y-46444819D01*
X109204000Y-46444819D02*
X109346857Y-46492438D01*
X109775429Y-47444819D02*
X109775429Y-46444819D01*
X106529429Y-61684819D02*
X107100857Y-61684819D01*
X106815143Y-62684819D02*
X106815143Y-61684819D01*
X107196096Y-62780057D02*
X107958000Y-62780057D01*
X108196096Y-62684819D02*
X108196096Y-61684819D01*
X108196096Y-61684819D02*
X108434191Y-61684819D01*
X108434191Y-61684819D02*
X108577048Y-61732438D01*
X108577048Y-61732438D02*
X108672286Y-61827676D01*
X108672286Y-61827676D02*
X108719905Y-61922914D01*
X108719905Y-61922914D02*
X108767524Y-62113390D01*
X108767524Y-62113390D02*
X108767524Y-62256247D01*
X108767524Y-62256247D02*
X108719905Y-62446723D01*
X108719905Y-62446723D02*
X108672286Y-62541961D01*
X108672286Y-62541961D02*
X108577048Y-62637200D01*
X108577048Y-62637200D02*
X108434191Y-62684819D01*
X108434191Y-62684819D02*
X108196096Y-62684819D01*
X109196096Y-62684819D02*
X109196096Y-61684819D01*
X109672286Y-62684819D02*
X109672286Y-61684819D01*
X109672286Y-61684819D02*
X110243714Y-62684819D01*
X110243714Y-62684819D02*
X110243714Y-61684819D01*
X107188095Y-36332438D02*
X107092857Y-36284819D01*
X107092857Y-36284819D02*
X106950000Y-36284819D01*
X106950000Y-36284819D02*
X106807143Y-36332438D01*
X106807143Y-36332438D02*
X106711905Y-36427676D01*
X106711905Y-36427676D02*
X106664286Y-36522914D01*
X106664286Y-36522914D02*
X106616667Y-36713390D01*
X106616667Y-36713390D02*
X106616667Y-36856247D01*
X106616667Y-36856247D02*
X106664286Y-37046723D01*
X106664286Y-37046723D02*
X106711905Y-37141961D01*
X106711905Y-37141961D02*
X106807143Y-37237200D01*
X106807143Y-37237200D02*
X106950000Y-37284819D01*
X106950000Y-37284819D02*
X107045238Y-37284819D01*
X107045238Y-37284819D02*
X107188095Y-37237200D01*
X107188095Y-37237200D02*
X107235714Y-37189580D01*
X107235714Y-37189580D02*
X107235714Y-36856247D01*
X107235714Y-36856247D02*
X107045238Y-36856247D01*
X107664286Y-37284819D02*
X107664286Y-36284819D01*
X107664286Y-36284819D02*
X108235714Y-37284819D01*
X108235714Y-37284819D02*
X108235714Y-36284819D01*
X108711905Y-37284819D02*
X108711905Y-36284819D01*
X108711905Y-36284819D02*
X108950000Y-36284819D01*
X108950000Y-36284819D02*
X109092857Y-36332438D01*
X109092857Y-36332438D02*
X109188095Y-36427676D01*
X109188095Y-36427676D02*
X109235714Y-36522914D01*
X109235714Y-36522914D02*
X109283333Y-36713390D01*
X109283333Y-36713390D02*
X109283333Y-36856247D01*
X109283333Y-36856247D02*
X109235714Y-37046723D01*
X109235714Y-37046723D02*
X109188095Y-37141961D01*
X109188095Y-37141961D02*
X109092857Y-37237200D01*
X109092857Y-37237200D02*
X108950000Y-37284819D01*
X108950000Y-37284819D02*
X108711905Y-37284819D01*
X106680095Y-44904819D02*
X106680095Y-43904819D01*
X106680095Y-43904819D02*
X106918190Y-43904819D01*
X106918190Y-43904819D02*
X107061047Y-43952438D01*
X107061047Y-43952438D02*
X107156285Y-44047676D01*
X107156285Y-44047676D02*
X107203904Y-44142914D01*
X107203904Y-44142914D02*
X107251523Y-44333390D01*
X107251523Y-44333390D02*
X107251523Y-44476247D01*
X107251523Y-44476247D02*
X107203904Y-44666723D01*
X107203904Y-44666723D02*
X107156285Y-44761961D01*
X107156285Y-44761961D02*
X107061047Y-44857200D01*
X107061047Y-44857200D02*
X106918190Y-44904819D01*
X106918190Y-44904819D02*
X106680095Y-44904819D01*
X108251523Y-44809580D02*
X108203904Y-44857200D01*
X108203904Y-44857200D02*
X108061047Y-44904819D01*
X108061047Y-44904819D02*
X107965809Y-44904819D01*
X107965809Y-44904819D02*
X107822952Y-44857200D01*
X107822952Y-44857200D02*
X107727714Y-44761961D01*
X107727714Y-44761961D02*
X107680095Y-44666723D01*
X107680095Y-44666723D02*
X107632476Y-44476247D01*
X107632476Y-44476247D02*
X107632476Y-44333390D01*
X107632476Y-44333390D02*
X107680095Y-44142914D01*
X107680095Y-44142914D02*
X107727714Y-44047676D01*
X107727714Y-44047676D02*
X107822952Y-43952438D01*
X107822952Y-43952438D02*
X107965809Y-43904819D01*
X107965809Y-43904819D02*
X108061047Y-43904819D01*
X108061047Y-43904819D02*
X108203904Y-43952438D01*
X108203904Y-43952438D02*
X108251523Y-44000057D01*
X107275333Y-39729580D02*
X107227714Y-39777200D01*
X107227714Y-39777200D02*
X107084857Y-39824819D01*
X107084857Y-39824819D02*
X106989619Y-39824819D01*
X106989619Y-39824819D02*
X106846762Y-39777200D01*
X106846762Y-39777200D02*
X106751524Y-39681961D01*
X106751524Y-39681961D02*
X106703905Y-39586723D01*
X106703905Y-39586723D02*
X106656286Y-39396247D01*
X106656286Y-39396247D02*
X106656286Y-39253390D01*
X106656286Y-39253390D02*
X106703905Y-39062914D01*
X106703905Y-39062914D02*
X106751524Y-38967676D01*
X106751524Y-38967676D02*
X106846762Y-38872438D01*
X106846762Y-38872438D02*
X106989619Y-38824819D01*
X106989619Y-38824819D02*
X107084857Y-38824819D01*
X107084857Y-38824819D02*
X107227714Y-38872438D01*
X107227714Y-38872438D02*
X107275333Y-38920057D01*
X107656286Y-39777200D02*
X107799143Y-39824819D01*
X107799143Y-39824819D02*
X108037238Y-39824819D01*
X108037238Y-39824819D02*
X108132476Y-39777200D01*
X108132476Y-39777200D02*
X108180095Y-39729580D01*
X108180095Y-39729580D02*
X108227714Y-39634342D01*
X108227714Y-39634342D02*
X108227714Y-39539104D01*
X108227714Y-39539104D02*
X108180095Y-39443866D01*
X108180095Y-39443866D02*
X108132476Y-39396247D01*
X108132476Y-39396247D02*
X108037238Y-39348628D01*
X108037238Y-39348628D02*
X107846762Y-39301009D01*
X107846762Y-39301009D02*
X107751524Y-39253390D01*
X107751524Y-39253390D02*
X107703905Y-39205771D01*
X107703905Y-39205771D02*
X107656286Y-39110533D01*
X107656286Y-39110533D02*
X107656286Y-39015295D01*
X107656286Y-39015295D02*
X107703905Y-38920057D01*
X107703905Y-38920057D02*
X107751524Y-38872438D01*
X107751524Y-38872438D02*
X107846762Y-38824819D01*
X107846762Y-38824819D02*
X108084857Y-38824819D01*
X108084857Y-38824819D02*
X108227714Y-38872438D01*
X118596580Y-83849666D02*
X118644200Y-83897285D01*
X118644200Y-83897285D02*
X118691819Y-84040142D01*
X118691819Y-84040142D02*
X118691819Y-84135380D01*
X118691819Y-84135380D02*
X118644200Y-84278237D01*
X118644200Y-84278237D02*
X118548961Y-84373475D01*
X118548961Y-84373475D02*
X118453723Y-84421094D01*
X118453723Y-84421094D02*
X118263247Y-84468713D01*
X118263247Y-84468713D02*
X118120390Y-84468713D01*
X118120390Y-84468713D02*
X117929914Y-84421094D01*
X117929914Y-84421094D02*
X117834676Y-84373475D01*
X117834676Y-84373475D02*
X117739438Y-84278237D01*
X117739438Y-84278237D02*
X117691819Y-84135380D01*
X117691819Y-84135380D02*
X117691819Y-84040142D01*
X117691819Y-84040142D02*
X117739438Y-83897285D01*
X117739438Y-83897285D02*
X117787057Y-83849666D01*
X117787057Y-83468713D02*
X117739438Y-83421094D01*
X117739438Y-83421094D02*
X117691819Y-83325856D01*
X117691819Y-83325856D02*
X117691819Y-83087761D01*
X117691819Y-83087761D02*
X117739438Y-82992523D01*
X117739438Y-82992523D02*
X117787057Y-82944904D01*
X117787057Y-82944904D02*
X117882295Y-82897285D01*
X117882295Y-82897285D02*
X117977533Y-82897285D01*
X117977533Y-82897285D02*
X118120390Y-82944904D01*
X118120390Y-82944904D02*
X118691819Y-83516332D01*
X118691819Y-83516332D02*
X118691819Y-82897285D01*
X146677142Y-74654580D02*
X146629523Y-74702200D01*
X146629523Y-74702200D02*
X146486666Y-74749819D01*
X146486666Y-74749819D02*
X146391428Y-74749819D01*
X146391428Y-74749819D02*
X146248571Y-74702200D01*
X146248571Y-74702200D02*
X146153333Y-74606961D01*
X146153333Y-74606961D02*
X146105714Y-74511723D01*
X146105714Y-74511723D02*
X146058095Y-74321247D01*
X146058095Y-74321247D02*
X146058095Y-74178390D01*
X146058095Y-74178390D02*
X146105714Y-73987914D01*
X146105714Y-73987914D02*
X146153333Y-73892676D01*
X146153333Y-73892676D02*
X146248571Y-73797438D01*
X146248571Y-73797438D02*
X146391428Y-73749819D01*
X146391428Y-73749819D02*
X146486666Y-73749819D01*
X146486666Y-73749819D02*
X146629523Y-73797438D01*
X146629523Y-73797438D02*
X146677142Y-73845057D01*
X147629523Y-74749819D02*
X147058095Y-74749819D01*
X147343809Y-74749819D02*
X147343809Y-73749819D01*
X147343809Y-73749819D02*
X147248571Y-73892676D01*
X147248571Y-73892676D02*
X147153333Y-73987914D01*
X147153333Y-73987914D02*
X147058095Y-74035533D01*
X148248571Y-73749819D02*
X148343809Y-73749819D01*
X148343809Y-73749819D02*
X148439047Y-73797438D01*
X148439047Y-73797438D02*
X148486666Y-73845057D01*
X148486666Y-73845057D02*
X148534285Y-73940295D01*
X148534285Y-73940295D02*
X148581904Y-74130771D01*
X148581904Y-74130771D02*
X148581904Y-74368866D01*
X148581904Y-74368866D02*
X148534285Y-74559342D01*
X148534285Y-74559342D02*
X148486666Y-74654580D01*
X148486666Y-74654580D02*
X148439047Y-74702200D01*
X148439047Y-74702200D02*
X148343809Y-74749819D01*
X148343809Y-74749819D02*
X148248571Y-74749819D01*
X148248571Y-74749819D02*
X148153333Y-74702200D01*
X148153333Y-74702200D02*
X148105714Y-74654580D01*
X148105714Y-74654580D02*
X148058095Y-74559342D01*
X148058095Y-74559342D02*
X148010476Y-74368866D01*
X148010476Y-74368866D02*
X148010476Y-74130771D01*
X148010476Y-74130771D02*
X148058095Y-73940295D01*
X148058095Y-73940295D02*
X148105714Y-73845057D01*
X148105714Y-73845057D02*
X148153333Y-73797438D01*
X148153333Y-73797438D02*
X148248571Y-73749819D01*
X116673333Y-105229819D02*
X116340000Y-104753628D01*
X116101905Y-105229819D02*
X116101905Y-104229819D01*
X116101905Y-104229819D02*
X116482857Y-104229819D01*
X116482857Y-104229819D02*
X116578095Y-104277438D01*
X116578095Y-104277438D02*
X116625714Y-104325057D01*
X116625714Y-104325057D02*
X116673333Y-104420295D01*
X116673333Y-104420295D02*
X116673333Y-104563152D01*
X116673333Y-104563152D02*
X116625714Y-104658390D01*
X116625714Y-104658390D02*
X116578095Y-104706009D01*
X116578095Y-104706009D02*
X116482857Y-104753628D01*
X116482857Y-104753628D02*
X116101905Y-104753628D01*
X117530476Y-104563152D02*
X117530476Y-105229819D01*
X117292381Y-104182200D02*
X117054286Y-104896485D01*
X117054286Y-104896485D02*
X117673333Y-104896485D01*
X146677142Y-71479580D02*
X146629523Y-71527200D01*
X146629523Y-71527200D02*
X146486666Y-71574819D01*
X146486666Y-71574819D02*
X146391428Y-71574819D01*
X146391428Y-71574819D02*
X146248571Y-71527200D01*
X146248571Y-71527200D02*
X146153333Y-71431961D01*
X146153333Y-71431961D02*
X146105714Y-71336723D01*
X146105714Y-71336723D02*
X146058095Y-71146247D01*
X146058095Y-71146247D02*
X146058095Y-71003390D01*
X146058095Y-71003390D02*
X146105714Y-70812914D01*
X146105714Y-70812914D02*
X146153333Y-70717676D01*
X146153333Y-70717676D02*
X146248571Y-70622438D01*
X146248571Y-70622438D02*
X146391428Y-70574819D01*
X146391428Y-70574819D02*
X146486666Y-70574819D01*
X146486666Y-70574819D02*
X146629523Y-70622438D01*
X146629523Y-70622438D02*
X146677142Y-70670057D01*
X147629523Y-71574819D02*
X147058095Y-71574819D01*
X147343809Y-71574819D02*
X147343809Y-70574819D01*
X147343809Y-70574819D02*
X147248571Y-70717676D01*
X147248571Y-70717676D02*
X147153333Y-70812914D01*
X147153333Y-70812914D02*
X147058095Y-70860533D01*
X148581904Y-71574819D02*
X148010476Y-71574819D01*
X148296190Y-71574819D02*
X148296190Y-70574819D01*
X148296190Y-70574819D02*
X148200952Y-70717676D01*
X148200952Y-70717676D02*
X148105714Y-70812914D01*
X148105714Y-70812914D02*
X148010476Y-70860533D01*
X151838819Y-93892666D02*
X151362628Y-94225999D01*
X151838819Y-94464094D02*
X150838819Y-94464094D01*
X150838819Y-94464094D02*
X150838819Y-94083142D01*
X150838819Y-94083142D02*
X150886438Y-93987904D01*
X150886438Y-93987904D02*
X150934057Y-93940285D01*
X150934057Y-93940285D02*
X151029295Y-93892666D01*
X151029295Y-93892666D02*
X151172152Y-93892666D01*
X151172152Y-93892666D02*
X151267390Y-93940285D01*
X151267390Y-93940285D02*
X151315009Y-93987904D01*
X151315009Y-93987904D02*
X151362628Y-94083142D01*
X151362628Y-94083142D02*
X151362628Y-94464094D01*
X150838819Y-93559332D02*
X150838819Y-92892666D01*
X150838819Y-92892666D02*
X151838819Y-93321237D01*
X148931333Y-116532819D02*
X148598000Y-116056628D01*
X148359905Y-116532819D02*
X148359905Y-115532819D01*
X148359905Y-115532819D02*
X148740857Y-115532819D01*
X148740857Y-115532819D02*
X148836095Y-115580438D01*
X148836095Y-115580438D02*
X148883714Y-115628057D01*
X148883714Y-115628057D02*
X148931333Y-115723295D01*
X148931333Y-115723295D02*
X148931333Y-115866152D01*
X148931333Y-115866152D02*
X148883714Y-115961390D01*
X148883714Y-115961390D02*
X148836095Y-116009009D01*
X148836095Y-116009009D02*
X148740857Y-116056628D01*
X148740857Y-116056628D02*
X148359905Y-116056628D01*
X149883714Y-116532819D02*
X149312286Y-116532819D01*
X149598000Y-116532819D02*
X149598000Y-115532819D01*
X149598000Y-115532819D02*
X149502762Y-115675676D01*
X149502762Y-115675676D02*
X149407524Y-115770914D01*
X149407524Y-115770914D02*
X149312286Y-115818533D01*
X145542095Y-111722819D02*
X145542095Y-112532342D01*
X145542095Y-112532342D02*
X145589714Y-112627580D01*
X145589714Y-112627580D02*
X145637333Y-112675200D01*
X145637333Y-112675200D02*
X145732571Y-112722819D01*
X145732571Y-112722819D02*
X145923047Y-112722819D01*
X145923047Y-112722819D02*
X146018285Y-112675200D01*
X146018285Y-112675200D02*
X146065904Y-112627580D01*
X146065904Y-112627580D02*
X146113523Y-112532342D01*
X146113523Y-112532342D02*
X146113523Y-111722819D01*
X146542095Y-111818057D02*
X146589714Y-111770438D01*
X146589714Y-111770438D02*
X146684952Y-111722819D01*
X146684952Y-111722819D02*
X146923047Y-111722819D01*
X146923047Y-111722819D02*
X147018285Y-111770438D01*
X147018285Y-111770438D02*
X147065904Y-111818057D01*
X147065904Y-111818057D02*
X147113523Y-111913295D01*
X147113523Y-111913295D02*
X147113523Y-112008533D01*
X147113523Y-112008533D02*
X147065904Y-112151390D01*
X147065904Y-112151390D02*
X146494476Y-112722819D01*
X146494476Y-112722819D02*
X147113523Y-112722819D01*
X151407905Y-128216819D02*
X151407905Y-127216819D01*
X151407905Y-127216819D02*
X151646000Y-127216819D01*
X151646000Y-127216819D02*
X151788857Y-127264438D01*
X151788857Y-127264438D02*
X151884095Y-127359676D01*
X151884095Y-127359676D02*
X151931714Y-127454914D01*
X151931714Y-127454914D02*
X151979333Y-127645390D01*
X151979333Y-127645390D02*
X151979333Y-127788247D01*
X151979333Y-127788247D02*
X151931714Y-127978723D01*
X151931714Y-127978723D02*
X151884095Y-128073961D01*
X151884095Y-128073961D02*
X151788857Y-128169200D01*
X151788857Y-128169200D02*
X151646000Y-128216819D01*
X151646000Y-128216819D02*
X151407905Y-128216819D01*
X152931714Y-128216819D02*
X152360286Y-128216819D01*
X152646000Y-128216819D02*
X152646000Y-127216819D01*
X152646000Y-127216819D02*
X152550762Y-127359676D01*
X152550762Y-127359676D02*
X152455524Y-127454914D01*
X152455524Y-127454914D02*
X152360286Y-127502533D01*
X106499819Y-116308094D02*
X105499819Y-116308094D01*
X105499819Y-116308094D02*
X105499819Y-116069999D01*
X105499819Y-116069999D02*
X105547438Y-115927142D01*
X105547438Y-115927142D02*
X105642676Y-115831904D01*
X105642676Y-115831904D02*
X105737914Y-115784285D01*
X105737914Y-115784285D02*
X105928390Y-115736666D01*
X105928390Y-115736666D02*
X106071247Y-115736666D01*
X106071247Y-115736666D02*
X106261723Y-115784285D01*
X106261723Y-115784285D02*
X106356961Y-115831904D01*
X106356961Y-115831904D02*
X106452200Y-115927142D01*
X106452200Y-115927142D02*
X106499819Y-116069999D01*
X106499819Y-116069999D02*
X106499819Y-116308094D01*
X105499819Y-115403332D02*
X105499819Y-114784285D01*
X105499819Y-114784285D02*
X105880771Y-115117618D01*
X105880771Y-115117618D02*
X105880771Y-114974761D01*
X105880771Y-114974761D02*
X105928390Y-114879523D01*
X105928390Y-114879523D02*
X105976009Y-114831904D01*
X105976009Y-114831904D02*
X106071247Y-114784285D01*
X106071247Y-114784285D02*
X106309342Y-114784285D01*
X106309342Y-114784285D02*
X106404580Y-114831904D01*
X106404580Y-114831904D02*
X106452200Y-114879523D01*
X106452200Y-114879523D02*
X106499819Y-114974761D01*
X106499819Y-114974761D02*
X106499819Y-115260475D01*
X106499819Y-115260475D02*
X106452200Y-115355713D01*
X106452200Y-115355713D02*
X106404580Y-115403332D01*
X135527047Y-120581009D02*
X135669904Y-120628628D01*
X135669904Y-120628628D02*
X135717523Y-120676247D01*
X135717523Y-120676247D02*
X135765142Y-120771485D01*
X135765142Y-120771485D02*
X135765142Y-120914342D01*
X135765142Y-120914342D02*
X135717523Y-121009580D01*
X135717523Y-121009580D02*
X135669904Y-121057200D01*
X135669904Y-121057200D02*
X135574666Y-121104819D01*
X135574666Y-121104819D02*
X135193714Y-121104819D01*
X135193714Y-121104819D02*
X135193714Y-120104819D01*
X135193714Y-120104819D02*
X135527047Y-120104819D01*
X135527047Y-120104819D02*
X135622285Y-120152438D01*
X135622285Y-120152438D02*
X135669904Y-120200057D01*
X135669904Y-120200057D02*
X135717523Y-120295295D01*
X135717523Y-120295295D02*
X135717523Y-120390533D01*
X135717523Y-120390533D02*
X135669904Y-120485771D01*
X135669904Y-120485771D02*
X135622285Y-120533390D01*
X135622285Y-120533390D02*
X135527047Y-120581009D01*
X135527047Y-120581009D02*
X135193714Y-120581009D01*
X136098476Y-120104819D02*
X136765142Y-120104819D01*
X136765142Y-120104819D02*
X136098476Y-121104819D01*
X136098476Y-121104819D02*
X136765142Y-121104819D01*
X137669904Y-121104819D02*
X137098476Y-121104819D01*
X137384190Y-121104819D02*
X137384190Y-120104819D01*
X137384190Y-120104819D02*
X137288952Y-120247676D01*
X137288952Y-120247676D02*
X137193714Y-120342914D01*
X137193714Y-120342914D02*
X137098476Y-120390533D01*
X129159048Y-120723866D02*
X129920953Y-120723866D01*
X129540000Y-121104819D02*
X129540000Y-120342914D01*
X155368666Y-62446819D02*
X155368666Y-63161104D01*
X155368666Y-63161104D02*
X155321047Y-63303961D01*
X155321047Y-63303961D02*
X155225809Y-63399200D01*
X155225809Y-63399200D02*
X155082952Y-63446819D01*
X155082952Y-63446819D02*
X154987714Y-63446819D01*
X156368666Y-63446819D02*
X155797238Y-63446819D01*
X156082952Y-63446819D02*
X156082952Y-62446819D01*
X156082952Y-62446819D02*
X155987714Y-62589676D01*
X155987714Y-62589676D02*
X155892476Y-62684914D01*
X155892476Y-62684914D02*
X155797238Y-62732533D01*
X146518333Y-81004580D02*
X146470714Y-81052200D01*
X146470714Y-81052200D02*
X146327857Y-81099819D01*
X146327857Y-81099819D02*
X146232619Y-81099819D01*
X146232619Y-81099819D02*
X146089762Y-81052200D01*
X146089762Y-81052200D02*
X145994524Y-80956961D01*
X145994524Y-80956961D02*
X145946905Y-80861723D01*
X145946905Y-80861723D02*
X145899286Y-80671247D01*
X145899286Y-80671247D02*
X145899286Y-80528390D01*
X145899286Y-80528390D02*
X145946905Y-80337914D01*
X145946905Y-80337914D02*
X145994524Y-80242676D01*
X145994524Y-80242676D02*
X146089762Y-80147438D01*
X146089762Y-80147438D02*
X146232619Y-80099819D01*
X146232619Y-80099819D02*
X146327857Y-80099819D01*
X146327857Y-80099819D02*
X146470714Y-80147438D01*
X146470714Y-80147438D02*
X146518333Y-80195057D01*
X147089762Y-80528390D02*
X146994524Y-80480771D01*
X146994524Y-80480771D02*
X146946905Y-80433152D01*
X146946905Y-80433152D02*
X146899286Y-80337914D01*
X146899286Y-80337914D02*
X146899286Y-80290295D01*
X146899286Y-80290295D02*
X146946905Y-80195057D01*
X146946905Y-80195057D02*
X146994524Y-80147438D01*
X146994524Y-80147438D02*
X147089762Y-80099819D01*
X147089762Y-80099819D02*
X147280238Y-80099819D01*
X147280238Y-80099819D02*
X147375476Y-80147438D01*
X147375476Y-80147438D02*
X147423095Y-80195057D01*
X147423095Y-80195057D02*
X147470714Y-80290295D01*
X147470714Y-80290295D02*
X147470714Y-80337914D01*
X147470714Y-80337914D02*
X147423095Y-80433152D01*
X147423095Y-80433152D02*
X147375476Y-80480771D01*
X147375476Y-80480771D02*
X147280238Y-80528390D01*
X147280238Y-80528390D02*
X147089762Y-80528390D01*
X147089762Y-80528390D02*
X146994524Y-80576009D01*
X146994524Y-80576009D02*
X146946905Y-80623628D01*
X146946905Y-80623628D02*
X146899286Y-80718866D01*
X146899286Y-80718866D02*
X146899286Y-80909342D01*
X146899286Y-80909342D02*
X146946905Y-81004580D01*
X146946905Y-81004580D02*
X146994524Y-81052200D01*
X146994524Y-81052200D02*
X147089762Y-81099819D01*
X147089762Y-81099819D02*
X147280238Y-81099819D01*
X147280238Y-81099819D02*
X147375476Y-81052200D01*
X147375476Y-81052200D02*
X147423095Y-81004580D01*
X147423095Y-81004580D02*
X147470714Y-80909342D01*
X147470714Y-80909342D02*
X147470714Y-80718866D01*
X147470714Y-80718866D02*
X147423095Y-80623628D01*
X147423095Y-80623628D02*
X147375476Y-80576009D01*
X147375476Y-80576009D02*
X147280238Y-80528390D01*
X102028666Y-64732819D02*
X102028666Y-65447104D01*
X102028666Y-65447104D02*
X101981047Y-65589961D01*
X101981047Y-65589961D02*
X101885809Y-65685200D01*
X101885809Y-65685200D02*
X101742952Y-65732819D01*
X101742952Y-65732819D02*
X101647714Y-65732819D01*
X102933428Y-65066152D02*
X102933428Y-65732819D01*
X102695333Y-64685200D02*
X102457238Y-65399485D01*
X102457238Y-65399485D02*
X103076285Y-65399485D01*
X108870761Y-109516057D02*
X108775523Y-109468438D01*
X108775523Y-109468438D02*
X108680285Y-109373200D01*
X108680285Y-109373200D02*
X108537428Y-109230342D01*
X108537428Y-109230342D02*
X108442190Y-109182723D01*
X108442190Y-109182723D02*
X108346952Y-109182723D01*
X108394571Y-109420819D02*
X108299333Y-109373200D01*
X108299333Y-109373200D02*
X108204095Y-109277961D01*
X108204095Y-109277961D02*
X108156476Y-109087485D01*
X108156476Y-109087485D02*
X108156476Y-108754152D01*
X108156476Y-108754152D02*
X108204095Y-108563676D01*
X108204095Y-108563676D02*
X108299333Y-108468438D01*
X108299333Y-108468438D02*
X108394571Y-108420819D01*
X108394571Y-108420819D02*
X108585047Y-108420819D01*
X108585047Y-108420819D02*
X108680285Y-108468438D01*
X108680285Y-108468438D02*
X108775523Y-108563676D01*
X108775523Y-108563676D02*
X108823142Y-108754152D01*
X108823142Y-108754152D02*
X108823142Y-109087485D01*
X108823142Y-109087485D02*
X108775523Y-109277961D01*
X108775523Y-109277961D02*
X108680285Y-109373200D01*
X108680285Y-109373200D02*
X108585047Y-109420819D01*
X108585047Y-109420819D02*
X108394571Y-109420819D01*
X109204095Y-108516057D02*
X109251714Y-108468438D01*
X109251714Y-108468438D02*
X109346952Y-108420819D01*
X109346952Y-108420819D02*
X109585047Y-108420819D01*
X109585047Y-108420819D02*
X109680285Y-108468438D01*
X109680285Y-108468438D02*
X109727904Y-108516057D01*
X109727904Y-108516057D02*
X109775523Y-108611295D01*
X109775523Y-108611295D02*
X109775523Y-108706533D01*
X109775523Y-108706533D02*
X109727904Y-108849390D01*
X109727904Y-108849390D02*
X109156476Y-109420819D01*
X109156476Y-109420819D02*
X109775523Y-109420819D01*
X116673333Y-123136819D02*
X116340000Y-122660628D01*
X116101905Y-123136819D02*
X116101905Y-122136819D01*
X116101905Y-122136819D02*
X116482857Y-122136819D01*
X116482857Y-122136819D02*
X116578095Y-122184438D01*
X116578095Y-122184438D02*
X116625714Y-122232057D01*
X116625714Y-122232057D02*
X116673333Y-122327295D01*
X116673333Y-122327295D02*
X116673333Y-122470152D01*
X116673333Y-122470152D02*
X116625714Y-122565390D01*
X116625714Y-122565390D02*
X116578095Y-122613009D01*
X116578095Y-122613009D02*
X116482857Y-122660628D01*
X116482857Y-122660628D02*
X116101905Y-122660628D01*
X117578095Y-122136819D02*
X117101905Y-122136819D01*
X117101905Y-122136819D02*
X117054286Y-122613009D01*
X117054286Y-122613009D02*
X117101905Y-122565390D01*
X117101905Y-122565390D02*
X117197143Y-122517771D01*
X117197143Y-122517771D02*
X117435238Y-122517771D01*
X117435238Y-122517771D02*
X117530476Y-122565390D01*
X117530476Y-122565390D02*
X117578095Y-122613009D01*
X117578095Y-122613009D02*
X117625714Y-122708247D01*
X117625714Y-122708247D02*
X117625714Y-122946342D01*
X117625714Y-122946342D02*
X117578095Y-123041580D01*
X117578095Y-123041580D02*
X117530476Y-123089200D01*
X117530476Y-123089200D02*
X117435238Y-123136819D01*
X117435238Y-123136819D02*
X117197143Y-123136819D01*
X117197143Y-123136819D02*
X117101905Y-123089200D01*
X117101905Y-123089200D02*
X117054286Y-123041580D01*
X113958567Y-58581373D02*
X114768403Y-58581373D01*
X114768403Y-58581373D02*
X114863678Y-58533736D01*
X114863678Y-58533736D02*
X114911316Y-58486099D01*
X114911316Y-58486099D02*
X114958953Y-58390824D01*
X114958953Y-58390824D02*
X114958953Y-58200274D01*
X114958953Y-58200274D02*
X114911316Y-58104999D01*
X114911316Y-58104999D02*
X114863678Y-58057362D01*
X114863678Y-58057362D02*
X114768403Y-58009724D01*
X114768403Y-58009724D02*
X113958567Y-58009724D01*
X114292029Y-57104614D02*
X114958953Y-57104614D01*
X113910930Y-57342801D02*
X114625491Y-57580988D01*
X114625491Y-57580988D02*
X114625491Y-56961701D01*
X143361580Y-92622666D02*
X143409200Y-92670285D01*
X143409200Y-92670285D02*
X143456819Y-92813142D01*
X143456819Y-92813142D02*
X143456819Y-92908380D01*
X143456819Y-92908380D02*
X143409200Y-93051237D01*
X143409200Y-93051237D02*
X143313961Y-93146475D01*
X143313961Y-93146475D02*
X143218723Y-93194094D01*
X143218723Y-93194094D02*
X143028247Y-93241713D01*
X143028247Y-93241713D02*
X142885390Y-93241713D01*
X142885390Y-93241713D02*
X142694914Y-93194094D01*
X142694914Y-93194094D02*
X142599676Y-93146475D01*
X142599676Y-93146475D02*
X142504438Y-93051237D01*
X142504438Y-93051237D02*
X142456819Y-92908380D01*
X142456819Y-92908380D02*
X142456819Y-92813142D01*
X142456819Y-92813142D02*
X142504438Y-92670285D01*
X142504438Y-92670285D02*
X142552057Y-92622666D01*
X143456819Y-91670285D02*
X143456819Y-92241713D01*
X143456819Y-91955999D02*
X142456819Y-91955999D01*
X142456819Y-91955999D02*
X142599676Y-92051237D01*
X142599676Y-92051237D02*
X142694914Y-92146475D01*
X142694914Y-92146475D02*
X142742533Y-92241713D01*
X148536819Y-95988094D02*
X147536819Y-95988094D01*
X147536819Y-95988094D02*
X147536819Y-95749999D01*
X147536819Y-95749999D02*
X147584438Y-95607142D01*
X147584438Y-95607142D02*
X147679676Y-95511904D01*
X147679676Y-95511904D02*
X147774914Y-95464285D01*
X147774914Y-95464285D02*
X147965390Y-95416666D01*
X147965390Y-95416666D02*
X148108247Y-95416666D01*
X148108247Y-95416666D02*
X148298723Y-95464285D01*
X148298723Y-95464285D02*
X148393961Y-95511904D01*
X148393961Y-95511904D02*
X148489200Y-95607142D01*
X148489200Y-95607142D02*
X148536819Y-95749999D01*
X148536819Y-95749999D02*
X148536819Y-95988094D01*
X147870152Y-94559523D02*
X148536819Y-94559523D01*
X147489200Y-94797618D02*
X148203485Y-95035713D01*
X148203485Y-95035713D02*
X148203485Y-94416666D01*
X146518333Y-77829580D02*
X146470714Y-77877200D01*
X146470714Y-77877200D02*
X146327857Y-77924819D01*
X146327857Y-77924819D02*
X146232619Y-77924819D01*
X146232619Y-77924819D02*
X146089762Y-77877200D01*
X146089762Y-77877200D02*
X145994524Y-77781961D01*
X145994524Y-77781961D02*
X145946905Y-77686723D01*
X145946905Y-77686723D02*
X145899286Y-77496247D01*
X145899286Y-77496247D02*
X145899286Y-77353390D01*
X145899286Y-77353390D02*
X145946905Y-77162914D01*
X145946905Y-77162914D02*
X145994524Y-77067676D01*
X145994524Y-77067676D02*
X146089762Y-76972438D01*
X146089762Y-76972438D02*
X146232619Y-76924819D01*
X146232619Y-76924819D02*
X146327857Y-76924819D01*
X146327857Y-76924819D02*
X146470714Y-76972438D01*
X146470714Y-76972438D02*
X146518333Y-77020057D01*
X146994524Y-77924819D02*
X147185000Y-77924819D01*
X147185000Y-77924819D02*
X147280238Y-77877200D01*
X147280238Y-77877200D02*
X147327857Y-77829580D01*
X147327857Y-77829580D02*
X147423095Y-77686723D01*
X147423095Y-77686723D02*
X147470714Y-77496247D01*
X147470714Y-77496247D02*
X147470714Y-77115295D01*
X147470714Y-77115295D02*
X147423095Y-77020057D01*
X147423095Y-77020057D02*
X147375476Y-76972438D01*
X147375476Y-76972438D02*
X147280238Y-76924819D01*
X147280238Y-76924819D02*
X147089762Y-76924819D01*
X147089762Y-76924819D02*
X146994524Y-76972438D01*
X146994524Y-76972438D02*
X146946905Y-77020057D01*
X146946905Y-77020057D02*
X146899286Y-77115295D01*
X146899286Y-77115295D02*
X146899286Y-77353390D01*
X146899286Y-77353390D02*
X146946905Y-77448628D01*
X146946905Y-77448628D02*
X146994524Y-77496247D01*
X146994524Y-77496247D02*
X147089762Y-77543866D01*
X147089762Y-77543866D02*
X147280238Y-77543866D01*
X147280238Y-77543866D02*
X147375476Y-77496247D01*
X147375476Y-77496247D02*
X147423095Y-77448628D01*
X147423095Y-77448628D02*
X147470714Y-77353390D01*
X146677142Y-65129580D02*
X146629523Y-65177200D01*
X146629523Y-65177200D02*
X146486666Y-65224819D01*
X146486666Y-65224819D02*
X146391428Y-65224819D01*
X146391428Y-65224819D02*
X146248571Y-65177200D01*
X146248571Y-65177200D02*
X146153333Y-65081961D01*
X146153333Y-65081961D02*
X146105714Y-64986723D01*
X146105714Y-64986723D02*
X146058095Y-64796247D01*
X146058095Y-64796247D02*
X146058095Y-64653390D01*
X146058095Y-64653390D02*
X146105714Y-64462914D01*
X146105714Y-64462914D02*
X146153333Y-64367676D01*
X146153333Y-64367676D02*
X146248571Y-64272438D01*
X146248571Y-64272438D02*
X146391428Y-64224819D01*
X146391428Y-64224819D02*
X146486666Y-64224819D01*
X146486666Y-64224819D02*
X146629523Y-64272438D01*
X146629523Y-64272438D02*
X146677142Y-64320057D01*
X147629523Y-65224819D02*
X147058095Y-65224819D01*
X147343809Y-65224819D02*
X147343809Y-64224819D01*
X147343809Y-64224819D02*
X147248571Y-64367676D01*
X147248571Y-64367676D02*
X147153333Y-64462914D01*
X147153333Y-64462914D02*
X147058095Y-64510533D01*
X147962857Y-64224819D02*
X148581904Y-64224819D01*
X148581904Y-64224819D02*
X148248571Y-64605771D01*
X148248571Y-64605771D02*
X148391428Y-64605771D01*
X148391428Y-64605771D02*
X148486666Y-64653390D01*
X148486666Y-64653390D02*
X148534285Y-64701009D01*
X148534285Y-64701009D02*
X148581904Y-64796247D01*
X148581904Y-64796247D02*
X148581904Y-65034342D01*
X148581904Y-65034342D02*
X148534285Y-65129580D01*
X148534285Y-65129580D02*
X148486666Y-65177200D01*
X148486666Y-65177200D02*
X148391428Y-65224819D01*
X148391428Y-65224819D02*
X148105714Y-65224819D01*
X148105714Y-65224819D02*
X148010476Y-65177200D01*
X148010476Y-65177200D02*
X147962857Y-65129580D01*
X133203333Y-88771580D02*
X133155714Y-88819200D01*
X133155714Y-88819200D02*
X133012857Y-88866819D01*
X133012857Y-88866819D02*
X132917619Y-88866819D01*
X132917619Y-88866819D02*
X132774762Y-88819200D01*
X132774762Y-88819200D02*
X132679524Y-88723961D01*
X132679524Y-88723961D02*
X132631905Y-88628723D01*
X132631905Y-88628723D02*
X132584286Y-88438247D01*
X132584286Y-88438247D02*
X132584286Y-88295390D01*
X132584286Y-88295390D02*
X132631905Y-88104914D01*
X132631905Y-88104914D02*
X132679524Y-88009676D01*
X132679524Y-88009676D02*
X132774762Y-87914438D01*
X132774762Y-87914438D02*
X132917619Y-87866819D01*
X132917619Y-87866819D02*
X133012857Y-87866819D01*
X133012857Y-87866819D02*
X133155714Y-87914438D01*
X133155714Y-87914438D02*
X133203333Y-87962057D01*
X134108095Y-87866819D02*
X133631905Y-87866819D01*
X133631905Y-87866819D02*
X133584286Y-88343009D01*
X133584286Y-88343009D02*
X133631905Y-88295390D01*
X133631905Y-88295390D02*
X133727143Y-88247771D01*
X133727143Y-88247771D02*
X133965238Y-88247771D01*
X133965238Y-88247771D02*
X134060476Y-88295390D01*
X134060476Y-88295390D02*
X134108095Y-88343009D01*
X134108095Y-88343009D02*
X134155714Y-88438247D01*
X134155714Y-88438247D02*
X134155714Y-88676342D01*
X134155714Y-88676342D02*
X134108095Y-88771580D01*
X134108095Y-88771580D02*
X134060476Y-88819200D01*
X134060476Y-88819200D02*
X133965238Y-88866819D01*
X133965238Y-88866819D02*
X133727143Y-88866819D01*
X133727143Y-88866819D02*
X133631905Y-88819200D01*
X133631905Y-88819200D02*
X133584286Y-88771580D01*
X154886819Y-93892666D02*
X154410628Y-94225999D01*
X154886819Y-94464094D02*
X153886819Y-94464094D01*
X153886819Y-94464094D02*
X153886819Y-94083142D01*
X153886819Y-94083142D02*
X153934438Y-93987904D01*
X153934438Y-93987904D02*
X153982057Y-93940285D01*
X153982057Y-93940285D02*
X154077295Y-93892666D01*
X154077295Y-93892666D02*
X154220152Y-93892666D01*
X154220152Y-93892666D02*
X154315390Y-93940285D01*
X154315390Y-93940285D02*
X154363009Y-93987904D01*
X154363009Y-93987904D02*
X154410628Y-94083142D01*
X154410628Y-94083142D02*
X154410628Y-94464094D01*
X153886819Y-93035523D02*
X153886819Y-93225999D01*
X153886819Y-93225999D02*
X153934438Y-93321237D01*
X153934438Y-93321237D02*
X153982057Y-93368856D01*
X153982057Y-93368856D02*
X154124914Y-93464094D01*
X154124914Y-93464094D02*
X154315390Y-93511713D01*
X154315390Y-93511713D02*
X154696342Y-93511713D01*
X154696342Y-93511713D02*
X154791580Y-93464094D01*
X154791580Y-93464094D02*
X154839200Y-93416475D01*
X154839200Y-93416475D02*
X154886819Y-93321237D01*
X154886819Y-93321237D02*
X154886819Y-93130761D01*
X154886819Y-93130761D02*
X154839200Y-93035523D01*
X154839200Y-93035523D02*
X154791580Y-92987904D01*
X154791580Y-92987904D02*
X154696342Y-92940285D01*
X154696342Y-92940285D02*
X154458247Y-92940285D01*
X154458247Y-92940285D02*
X154363009Y-92987904D01*
X154363009Y-92987904D02*
X154315390Y-93035523D01*
X154315390Y-93035523D02*
X154267771Y-93130761D01*
X154267771Y-93130761D02*
X154267771Y-93321237D01*
X154267771Y-93321237D02*
X154315390Y-93416475D01*
X154315390Y-93416475D02*
X154363009Y-93464094D01*
X154363009Y-93464094D02*
X154458247Y-93511713D01*
X106499819Y-98538094D02*
X105499819Y-98538094D01*
X105499819Y-98538094D02*
X105499819Y-98299999D01*
X105499819Y-98299999D02*
X105547438Y-98157142D01*
X105547438Y-98157142D02*
X105642676Y-98061904D01*
X105642676Y-98061904D02*
X105737914Y-98014285D01*
X105737914Y-98014285D02*
X105928390Y-97966666D01*
X105928390Y-97966666D02*
X106071247Y-97966666D01*
X106071247Y-97966666D02*
X106261723Y-98014285D01*
X106261723Y-98014285D02*
X106356961Y-98061904D01*
X106356961Y-98061904D02*
X106452200Y-98157142D01*
X106452200Y-98157142D02*
X106499819Y-98299999D01*
X106499819Y-98299999D02*
X106499819Y-98538094D01*
X105595057Y-97585713D02*
X105547438Y-97538094D01*
X105547438Y-97538094D02*
X105499819Y-97442856D01*
X105499819Y-97442856D02*
X105499819Y-97204761D01*
X105499819Y-97204761D02*
X105547438Y-97109523D01*
X105547438Y-97109523D02*
X105595057Y-97061904D01*
X105595057Y-97061904D02*
X105690295Y-97014285D01*
X105690295Y-97014285D02*
X105785533Y-97014285D01*
X105785533Y-97014285D02*
X105928390Y-97061904D01*
X105928390Y-97061904D02*
X106499819Y-97633332D01*
X106499819Y-97633332D02*
X106499819Y-97014285D01*
X147964666Y-123131009D02*
X147631333Y-123131009D01*
X147631333Y-123654819D02*
X147631333Y-122654819D01*
X147631333Y-122654819D02*
X148107523Y-122654819D01*
X149012285Y-123654819D02*
X148440857Y-123654819D01*
X148726571Y-123654819D02*
X148726571Y-122654819D01*
X148726571Y-122654819D02*
X148631333Y-122797676D01*
X148631333Y-122797676D02*
X148536095Y-122892914D01*
X148536095Y-122892914D02*
X148440857Y-122940533D01*
X116673333Y-108404819D02*
X116340000Y-107928628D01*
X116101905Y-108404819D02*
X116101905Y-107404819D01*
X116101905Y-107404819D02*
X116482857Y-107404819D01*
X116482857Y-107404819D02*
X116578095Y-107452438D01*
X116578095Y-107452438D02*
X116625714Y-107500057D01*
X116625714Y-107500057D02*
X116673333Y-107595295D01*
X116673333Y-107595295D02*
X116673333Y-107738152D01*
X116673333Y-107738152D02*
X116625714Y-107833390D01*
X116625714Y-107833390D02*
X116578095Y-107881009D01*
X116578095Y-107881009D02*
X116482857Y-107928628D01*
X116482857Y-107928628D02*
X116101905Y-107928628D01*
X117006667Y-107404819D02*
X117625714Y-107404819D01*
X117625714Y-107404819D02*
X117292381Y-107785771D01*
X117292381Y-107785771D02*
X117435238Y-107785771D01*
X117435238Y-107785771D02*
X117530476Y-107833390D01*
X117530476Y-107833390D02*
X117578095Y-107881009D01*
X117578095Y-107881009D02*
X117625714Y-107976247D01*
X117625714Y-107976247D02*
X117625714Y-108214342D01*
X117625714Y-108214342D02*
X117578095Y-108309580D01*
X117578095Y-108309580D02*
X117530476Y-108357200D01*
X117530476Y-108357200D02*
X117435238Y-108404819D01*
X117435238Y-108404819D02*
X117149524Y-108404819D01*
X117149524Y-108404819D02*
X117054286Y-108357200D01*
X117054286Y-108357200D02*
X117006667Y-108309580D01*
X146677142Y-68304580D02*
X146629523Y-68352200D01*
X146629523Y-68352200D02*
X146486666Y-68399819D01*
X146486666Y-68399819D02*
X146391428Y-68399819D01*
X146391428Y-68399819D02*
X146248571Y-68352200D01*
X146248571Y-68352200D02*
X146153333Y-68256961D01*
X146153333Y-68256961D02*
X146105714Y-68161723D01*
X146105714Y-68161723D02*
X146058095Y-67971247D01*
X146058095Y-67971247D02*
X146058095Y-67828390D01*
X146058095Y-67828390D02*
X146105714Y-67637914D01*
X146105714Y-67637914D02*
X146153333Y-67542676D01*
X146153333Y-67542676D02*
X146248571Y-67447438D01*
X146248571Y-67447438D02*
X146391428Y-67399819D01*
X146391428Y-67399819D02*
X146486666Y-67399819D01*
X146486666Y-67399819D02*
X146629523Y-67447438D01*
X146629523Y-67447438D02*
X146677142Y-67495057D01*
X147629523Y-68399819D02*
X147058095Y-68399819D01*
X147343809Y-68399819D02*
X147343809Y-67399819D01*
X147343809Y-67399819D02*
X147248571Y-67542676D01*
X147248571Y-67542676D02*
X147153333Y-67637914D01*
X147153333Y-67637914D02*
X147058095Y-67685533D01*
X148010476Y-67495057D02*
X148058095Y-67447438D01*
X148058095Y-67447438D02*
X148153333Y-67399819D01*
X148153333Y-67399819D02*
X148391428Y-67399819D01*
X148391428Y-67399819D02*
X148486666Y-67447438D01*
X148486666Y-67447438D02*
X148534285Y-67495057D01*
X148534285Y-67495057D02*
X148581904Y-67590295D01*
X148581904Y-67590295D02*
X148581904Y-67685533D01*
X148581904Y-67685533D02*
X148534285Y-67828390D01*
X148534285Y-67828390D02*
X147962857Y-68399819D01*
X147962857Y-68399819D02*
X148581904Y-68399819D01*
X112849819Y-116308094D02*
X111849819Y-116308094D01*
X112849819Y-115736666D02*
X112278390Y-116165237D01*
X111849819Y-115736666D02*
X112421247Y-116308094D01*
X111945057Y-115355713D02*
X111897438Y-115308094D01*
X111897438Y-115308094D02*
X111849819Y-115212856D01*
X111849819Y-115212856D02*
X111849819Y-114974761D01*
X111849819Y-114974761D02*
X111897438Y-114879523D01*
X111897438Y-114879523D02*
X111945057Y-114831904D01*
X111945057Y-114831904D02*
X112040295Y-114784285D01*
X112040295Y-114784285D02*
X112135533Y-114784285D01*
X112135533Y-114784285D02*
X112278390Y-114831904D01*
X112278390Y-114831904D02*
X112849819Y-115403332D01*
X112849819Y-115403332D02*
X112849819Y-114784285D01*
X153789142Y-113750580D02*
X153741523Y-113798200D01*
X153741523Y-113798200D02*
X153598666Y-113845819D01*
X153598666Y-113845819D02*
X153503428Y-113845819D01*
X153503428Y-113845819D02*
X153360571Y-113798200D01*
X153360571Y-113798200D02*
X153265333Y-113702961D01*
X153265333Y-113702961D02*
X153217714Y-113607723D01*
X153217714Y-113607723D02*
X153170095Y-113417247D01*
X153170095Y-113417247D02*
X153170095Y-113274390D01*
X153170095Y-113274390D02*
X153217714Y-113083914D01*
X153217714Y-113083914D02*
X153265333Y-112988676D01*
X153265333Y-112988676D02*
X153360571Y-112893438D01*
X153360571Y-112893438D02*
X153503428Y-112845819D01*
X153503428Y-112845819D02*
X153598666Y-112845819D01*
X153598666Y-112845819D02*
X153741523Y-112893438D01*
X153741523Y-112893438D02*
X153789142Y-112941057D01*
X154741523Y-113845819D02*
X154170095Y-113845819D01*
X154455809Y-113845819D02*
X154455809Y-112845819D01*
X154455809Y-112845819D02*
X154360571Y-112988676D01*
X154360571Y-112988676D02*
X154265333Y-113083914D01*
X154265333Y-113083914D02*
X154170095Y-113131533D01*
X155598666Y-113179152D02*
X155598666Y-113845819D01*
X155360571Y-112798200D02*
X155122476Y-113512485D01*
X155122476Y-113512485D02*
X155741523Y-113512485D01*
X140313580Y-93110666D02*
X140361200Y-93158285D01*
X140361200Y-93158285D02*
X140408819Y-93301142D01*
X140408819Y-93301142D02*
X140408819Y-93396380D01*
X140408819Y-93396380D02*
X140361200Y-93539237D01*
X140361200Y-93539237D02*
X140265961Y-93634475D01*
X140265961Y-93634475D02*
X140170723Y-93682094D01*
X140170723Y-93682094D02*
X139980247Y-93729713D01*
X139980247Y-93729713D02*
X139837390Y-93729713D01*
X139837390Y-93729713D02*
X139646914Y-93682094D01*
X139646914Y-93682094D02*
X139551676Y-93634475D01*
X139551676Y-93634475D02*
X139456438Y-93539237D01*
X139456438Y-93539237D02*
X139408819Y-93396380D01*
X139408819Y-93396380D02*
X139408819Y-93301142D01*
X139408819Y-93301142D02*
X139456438Y-93158285D01*
X139456438Y-93158285D02*
X139504057Y-93110666D01*
X139742152Y-92253523D02*
X140408819Y-92253523D01*
X139361200Y-92491618D02*
X140075485Y-92729713D01*
X140075485Y-92729713D02*
X140075485Y-92110666D01*
X146518333Y-87354580D02*
X146470714Y-87402200D01*
X146470714Y-87402200D02*
X146327857Y-87449819D01*
X146327857Y-87449819D02*
X146232619Y-87449819D01*
X146232619Y-87449819D02*
X146089762Y-87402200D01*
X146089762Y-87402200D02*
X145994524Y-87306961D01*
X145994524Y-87306961D02*
X145946905Y-87211723D01*
X145946905Y-87211723D02*
X145899286Y-87021247D01*
X145899286Y-87021247D02*
X145899286Y-86878390D01*
X145899286Y-86878390D02*
X145946905Y-86687914D01*
X145946905Y-86687914D02*
X145994524Y-86592676D01*
X145994524Y-86592676D02*
X146089762Y-86497438D01*
X146089762Y-86497438D02*
X146232619Y-86449819D01*
X146232619Y-86449819D02*
X146327857Y-86449819D01*
X146327857Y-86449819D02*
X146470714Y-86497438D01*
X146470714Y-86497438D02*
X146518333Y-86545057D01*
X147375476Y-86449819D02*
X147185000Y-86449819D01*
X147185000Y-86449819D02*
X147089762Y-86497438D01*
X147089762Y-86497438D02*
X147042143Y-86545057D01*
X147042143Y-86545057D02*
X146946905Y-86687914D01*
X146946905Y-86687914D02*
X146899286Y-86878390D01*
X146899286Y-86878390D02*
X146899286Y-87259342D01*
X146899286Y-87259342D02*
X146946905Y-87354580D01*
X146946905Y-87354580D02*
X146994524Y-87402200D01*
X146994524Y-87402200D02*
X147089762Y-87449819D01*
X147089762Y-87449819D02*
X147280238Y-87449819D01*
X147280238Y-87449819D02*
X147375476Y-87402200D01*
X147375476Y-87402200D02*
X147423095Y-87354580D01*
X147423095Y-87354580D02*
X147470714Y-87259342D01*
X147470714Y-87259342D02*
X147470714Y-87021247D01*
X147470714Y-87021247D02*
X147423095Y-86926009D01*
X147423095Y-86926009D02*
X147375476Y-86878390D01*
X147375476Y-86878390D02*
X147280238Y-86830771D01*
X147280238Y-86830771D02*
X147089762Y-86830771D01*
X147089762Y-86830771D02*
X146994524Y-86878390D01*
X146994524Y-86878390D02*
X146946905Y-86926009D01*
X146946905Y-86926009D02*
X146899286Y-87021247D01*
X128778095Y-61894819D02*
X128778095Y-62704342D01*
X128778095Y-62704342D02*
X128825714Y-62799580D01*
X128825714Y-62799580D02*
X128873333Y-62847200D01*
X128873333Y-62847200D02*
X128968571Y-62894819D01*
X128968571Y-62894819D02*
X129159047Y-62894819D01*
X129159047Y-62894819D02*
X129254285Y-62847200D01*
X129254285Y-62847200D02*
X129301904Y-62799580D01*
X129301904Y-62799580D02*
X129349523Y-62704342D01*
X129349523Y-62704342D02*
X129349523Y-61894819D01*
X129730476Y-61894819D02*
X130349523Y-61894819D01*
X130349523Y-61894819D02*
X130016190Y-62275771D01*
X130016190Y-62275771D02*
X130159047Y-62275771D01*
X130159047Y-62275771D02*
X130254285Y-62323390D01*
X130254285Y-62323390D02*
X130301904Y-62371009D01*
X130301904Y-62371009D02*
X130349523Y-62466247D01*
X130349523Y-62466247D02*
X130349523Y-62704342D01*
X130349523Y-62704342D02*
X130301904Y-62799580D01*
X130301904Y-62799580D02*
X130254285Y-62847200D01*
X130254285Y-62847200D02*
X130159047Y-62894819D01*
X130159047Y-62894819D02*
X129873333Y-62894819D01*
X129873333Y-62894819D02*
X129778095Y-62847200D01*
X129778095Y-62847200D02*
X129730476Y-62799580D01*
X112849819Y-98528094D02*
X111849819Y-98528094D01*
X112849819Y-97956666D02*
X112278390Y-98385237D01*
X111849819Y-97956666D02*
X112421247Y-98528094D01*
X112849819Y-97004285D02*
X112849819Y-97575713D01*
X112849819Y-97289999D02*
X111849819Y-97289999D01*
X111849819Y-97289999D02*
X111992676Y-97385237D01*
X111992676Y-97385237D02*
X112087914Y-97480475D01*
X112087914Y-97480475D02*
X112135533Y-97575713D01*
X156892666Y-127978819D02*
X156892666Y-128693104D01*
X156892666Y-128693104D02*
X156845047Y-128835961D01*
X156845047Y-128835961D02*
X156749809Y-128931200D01*
X156749809Y-128931200D02*
X156606952Y-128978819D01*
X156606952Y-128978819D02*
X156511714Y-128978819D01*
X157273619Y-127978819D02*
X157892666Y-127978819D01*
X157892666Y-127978819D02*
X157559333Y-128359771D01*
X157559333Y-128359771D02*
X157702190Y-128359771D01*
X157702190Y-128359771D02*
X157797428Y-128407390D01*
X157797428Y-128407390D02*
X157845047Y-128455009D01*
X157845047Y-128455009D02*
X157892666Y-128550247D01*
X157892666Y-128550247D02*
X157892666Y-128788342D01*
X157892666Y-128788342D02*
X157845047Y-128883580D01*
X157845047Y-128883580D02*
X157797428Y-128931200D01*
X157797428Y-128931200D02*
X157702190Y-128978819D01*
X157702190Y-128978819D02*
X157416476Y-128978819D01*
X157416476Y-128978819D02*
X157321238Y-128931200D01*
X157321238Y-128931200D02*
X157273619Y-128883580D01*
X116332095Y-61889819D02*
X116332095Y-62699342D01*
X116332095Y-62699342D02*
X116379714Y-62794580D01*
X116379714Y-62794580D02*
X116427333Y-62842200D01*
X116427333Y-62842200D02*
X116522571Y-62889819D01*
X116522571Y-62889819D02*
X116713047Y-62889819D01*
X116713047Y-62889819D02*
X116808285Y-62842200D01*
X116808285Y-62842200D02*
X116855904Y-62794580D01*
X116855904Y-62794580D02*
X116903523Y-62699342D01*
X116903523Y-62699342D02*
X116903523Y-61889819D01*
X117903523Y-62889819D02*
X117332095Y-62889819D01*
X117617809Y-62889819D02*
X117617809Y-61889819D01*
X117617809Y-61889819D02*
X117522571Y-62032676D01*
X117522571Y-62032676D02*
X117427333Y-62127914D01*
X117427333Y-62127914D02*
X117332095Y-62175533D01*
X146155580Y-92622666D02*
X146203200Y-92670285D01*
X146203200Y-92670285D02*
X146250819Y-92813142D01*
X146250819Y-92813142D02*
X146250819Y-92908380D01*
X146250819Y-92908380D02*
X146203200Y-93051237D01*
X146203200Y-93051237D02*
X146107961Y-93146475D01*
X146107961Y-93146475D02*
X146012723Y-93194094D01*
X146012723Y-93194094D02*
X145822247Y-93241713D01*
X145822247Y-93241713D02*
X145679390Y-93241713D01*
X145679390Y-93241713D02*
X145488914Y-93194094D01*
X145488914Y-93194094D02*
X145393676Y-93146475D01*
X145393676Y-93146475D02*
X145298438Y-93051237D01*
X145298438Y-93051237D02*
X145250819Y-92908380D01*
X145250819Y-92908380D02*
X145250819Y-92813142D01*
X145250819Y-92813142D02*
X145298438Y-92670285D01*
X145298438Y-92670285D02*
X145346057Y-92622666D01*
X145250819Y-92289332D02*
X145250819Y-91670285D01*
X145250819Y-91670285D02*
X145631771Y-92003618D01*
X145631771Y-92003618D02*
X145631771Y-91860761D01*
X145631771Y-91860761D02*
X145679390Y-91765523D01*
X145679390Y-91765523D02*
X145727009Y-91717904D01*
X145727009Y-91717904D02*
X145822247Y-91670285D01*
X145822247Y-91670285D02*
X146060342Y-91670285D01*
X146060342Y-91670285D02*
X146155580Y-91717904D01*
X146155580Y-91717904D02*
X146203200Y-91765523D01*
X146203200Y-91765523D02*
X146250819Y-91860761D01*
X146250819Y-91860761D02*
X146250819Y-92146475D01*
X146250819Y-92146475D02*
X146203200Y-92241713D01*
X146203200Y-92241713D02*
X146155580Y-92289332D01*
X108870761Y-127550057D02*
X108775523Y-127502438D01*
X108775523Y-127502438D02*
X108680285Y-127407200D01*
X108680285Y-127407200D02*
X108537428Y-127264342D01*
X108537428Y-127264342D02*
X108442190Y-127216723D01*
X108442190Y-127216723D02*
X108346952Y-127216723D01*
X108394571Y-127454819D02*
X108299333Y-127407200D01*
X108299333Y-127407200D02*
X108204095Y-127311961D01*
X108204095Y-127311961D02*
X108156476Y-127121485D01*
X108156476Y-127121485D02*
X108156476Y-126788152D01*
X108156476Y-126788152D02*
X108204095Y-126597676D01*
X108204095Y-126597676D02*
X108299333Y-126502438D01*
X108299333Y-126502438D02*
X108394571Y-126454819D01*
X108394571Y-126454819D02*
X108585047Y-126454819D01*
X108585047Y-126454819D02*
X108680285Y-126502438D01*
X108680285Y-126502438D02*
X108775523Y-126597676D01*
X108775523Y-126597676D02*
X108823142Y-126788152D01*
X108823142Y-126788152D02*
X108823142Y-127121485D01*
X108823142Y-127121485D02*
X108775523Y-127311961D01*
X108775523Y-127311961D02*
X108680285Y-127407200D01*
X108680285Y-127407200D02*
X108585047Y-127454819D01*
X108585047Y-127454819D02*
X108394571Y-127454819D01*
X109775523Y-127454819D02*
X109204095Y-127454819D01*
X109489809Y-127454819D02*
X109489809Y-126454819D01*
X109489809Y-126454819D02*
X109394571Y-126597676D01*
X109394571Y-126597676D02*
X109299333Y-126692914D01*
X109299333Y-126692914D02*
X109204095Y-126740533D01*
X146518333Y-84179580D02*
X146470714Y-84227200D01*
X146470714Y-84227200D02*
X146327857Y-84274819D01*
X146327857Y-84274819D02*
X146232619Y-84274819D01*
X146232619Y-84274819D02*
X146089762Y-84227200D01*
X146089762Y-84227200D02*
X145994524Y-84131961D01*
X145994524Y-84131961D02*
X145946905Y-84036723D01*
X145946905Y-84036723D02*
X145899286Y-83846247D01*
X145899286Y-83846247D02*
X145899286Y-83703390D01*
X145899286Y-83703390D02*
X145946905Y-83512914D01*
X145946905Y-83512914D02*
X145994524Y-83417676D01*
X145994524Y-83417676D02*
X146089762Y-83322438D01*
X146089762Y-83322438D02*
X146232619Y-83274819D01*
X146232619Y-83274819D02*
X146327857Y-83274819D01*
X146327857Y-83274819D02*
X146470714Y-83322438D01*
X146470714Y-83322438D02*
X146518333Y-83370057D01*
X146851667Y-83274819D02*
X147518333Y-83274819D01*
X147518333Y-83274819D02*
X147089762Y-84274819D01*
X116673333Y-126438819D02*
X116340000Y-125962628D01*
X116101905Y-126438819D02*
X116101905Y-125438819D01*
X116101905Y-125438819D02*
X116482857Y-125438819D01*
X116482857Y-125438819D02*
X116578095Y-125486438D01*
X116578095Y-125486438D02*
X116625714Y-125534057D01*
X116625714Y-125534057D02*
X116673333Y-125629295D01*
X116673333Y-125629295D02*
X116673333Y-125772152D01*
X116673333Y-125772152D02*
X116625714Y-125867390D01*
X116625714Y-125867390D02*
X116578095Y-125915009D01*
X116578095Y-125915009D02*
X116482857Y-125962628D01*
X116482857Y-125962628D02*
X116101905Y-125962628D01*
X117054286Y-125534057D02*
X117101905Y-125486438D01*
X117101905Y-125486438D02*
X117197143Y-125438819D01*
X117197143Y-125438819D02*
X117435238Y-125438819D01*
X117435238Y-125438819D02*
X117530476Y-125486438D01*
X117530476Y-125486438D02*
X117578095Y-125534057D01*
X117578095Y-125534057D02*
X117625714Y-125629295D01*
X117625714Y-125629295D02*
X117625714Y-125724533D01*
X117625714Y-125724533D02*
X117578095Y-125867390D01*
X117578095Y-125867390D02*
X117006667Y-126438819D01*
X117006667Y-126438819D02*
X117625714Y-126438819D01*
D12*
X111954000Y-82196000D02*
X111954000Y-84936000D01*
X111954000Y-82196000D02*
X117194000Y-82196000D01*
X111954000Y-84936000D02*
X117194000Y-84936000D01*
X117194000Y-82196000D02*
X117194000Y-84936000D01*
X140275000Y-72925000D02*
X140275000Y-75665000D01*
X140275000Y-72925000D02*
X145515000Y-72925000D01*
X140275000Y-75665000D02*
X145515000Y-75665000D01*
X145515000Y-72925000D02*
X145515000Y-75665000D01*
X112800000Y-104785000D02*
X113570000Y-104785000D01*
X113570000Y-103415000D02*
X113570000Y-106155000D01*
X113570000Y-106155000D02*
X120110000Y-106155000D01*
X120110000Y-103415000D02*
X113570000Y-103415000D01*
X120110000Y-106155000D02*
X120110000Y-103415000D01*
X120880000Y-104785000D02*
X120110000Y-104785000D01*
X140275000Y-69750000D02*
X140275000Y-72490000D01*
X140275000Y-69750000D02*
X145515000Y-69750000D01*
X140275000Y-72490000D02*
X145515000Y-72490000D01*
X145515000Y-69750000D02*
X145515000Y-72490000D01*
X151130000Y-97766000D02*
X151130000Y-96996000D01*
X149760000Y-96996000D02*
X152500000Y-96996000D01*
X152500000Y-96996000D02*
X152500000Y-90456000D01*
X149760000Y-90456000D02*
X149760000Y-96996000D01*
X152500000Y-90456000D02*
X149760000Y-90456000D01*
X151130000Y-89686000D02*
X151130000Y-90456000D01*
X145058000Y-116078000D02*
X145828000Y-116078000D01*
X145828000Y-114708000D02*
X145828000Y-117448000D01*
X145828000Y-117448000D02*
X152368000Y-117448000D01*
X152368000Y-114708000D02*
X145828000Y-114708000D01*
X152368000Y-117448000D02*
X152368000Y-114708000D01*
X153138000Y-116078000D02*
X152368000Y-116078000D01*
X145757000Y-111038000D02*
X150398000Y-111038000D01*
X145757000Y-111038000D02*
X145757000Y-100798000D01*
X147267000Y-111038000D02*
X147267000Y-100798000D01*
X150398000Y-111038000D02*
X150398000Y-100798000D01*
X145757000Y-107768000D02*
X147267000Y-107768000D01*
X145757000Y-104067000D02*
X147267000Y-104067000D01*
X145757000Y-100798000D02*
X150398000Y-100798000D01*
X152870000Y-123416635D02*
X152870000Y-124076000D01*
X154620635Y-121666000D02*
G75*
G03*
X154620635Y-121666000I-1750635J0D01*
G01*
X106045000Y-112800000D02*
X106045000Y-113450000D01*
X107165000Y-113450000D02*
X104925000Y-113450000D01*
X104925000Y-113450000D02*
X104925000Y-117690000D01*
X107165000Y-114050000D02*
X104925000Y-114050000D01*
X107165000Y-114170000D02*
X104925000Y-114170000D01*
X107165000Y-114290000D02*
X104925000Y-114290000D01*
X107165000Y-117690000D02*
X107165000Y-113450000D01*
X104925000Y-117690000D02*
X107165000Y-117690000D01*
X106045000Y-118340000D02*
X106045000Y-117690000D01*
X142508000Y-120650000D02*
G75*
G03*
X142508000Y-120650000I-6100000J0D01*
G01*
X157652000Y-93790000D02*
X157652000Y-62820000D01*
X169992000Y-93790000D02*
X157652000Y-93790000D01*
X156757662Y-73015000D02*
X156757662Y-72515000D01*
X157190675Y-72765000D02*
X156757662Y-73015000D01*
X156757662Y-72515000D02*
X157190675Y-72765000D01*
X157652000Y-62820000D02*
X169992000Y-62820000D01*
X140275000Y-79275000D02*
X140275000Y-82015000D01*
X140275000Y-79275000D02*
X145515000Y-79275000D01*
X140275000Y-82015000D02*
X145515000Y-82015000D01*
X145515000Y-79275000D02*
X145515000Y-82015000D01*
X103445000Y-32960000D02*
X104775000Y-32960000D01*
X103445000Y-34290000D02*
X103445000Y-32960000D01*
X103445000Y-35560000D02*
X103445000Y-66100000D01*
X103445000Y-35560000D02*
X106105000Y-35560000D01*
X103445000Y-66100000D02*
X106105000Y-66100000D01*
X106105000Y-35560000D02*
X106105000Y-66100000D01*
X107985000Y-104990000D02*
X104135000Y-104990000D01*
X106045000Y-109289999D02*
G75*
G03*
X108401399Y-107788807I0J2599999D01*
G01*
X108367631Y-105567955D02*
G75*
G03*
X107985000Y-104990000I-2322631J-1122045D01*
G01*
X103688600Y-107788807D02*
G75*
G03*
X106045000Y-109290000I2356400J1098807D01*
G01*
X104135001Y-104990001D02*
G75*
G03*
X103742618Y-105577736I1909999J-1699999D01*
G01*
X112800000Y-122682000D02*
X113570000Y-122682000D01*
X113570000Y-121312000D02*
X113570000Y-124052000D01*
X113570000Y-124052000D02*
X120110000Y-124052000D01*
X120110000Y-121312000D02*
X113570000Y-121312000D01*
X120110000Y-124052000D02*
X120110000Y-121312000D01*
X120880000Y-122682000D02*
X120110000Y-122682000D01*
D13*
X115800000Y-60940000D02*
X115800000Y-33040000D01*
X170200000Y-60940000D02*
X115800000Y-60940000D01*
X115800000Y-33040000D02*
X170200000Y-33040000D01*
X170200000Y-33040000D02*
X170200000Y-60940000D01*
D14*
X123290000Y-61590000D02*
G75*
G03*
X123290000Y-61590000I-100000J0D01*
G01*
D12*
X141120000Y-98452000D02*
X143360000Y-98452000D01*
X141120000Y-98452000D02*
X141120000Y-93612000D01*
X143360000Y-98452000D02*
X143360000Y-93612000D01*
X141120000Y-93612000D02*
X143360000Y-93612000D01*
X148082000Y-92226000D02*
X148082000Y-92876000D01*
X149202000Y-92876000D02*
X146962000Y-92876000D01*
X146962000Y-92876000D02*
X146962000Y-97116000D01*
X149202000Y-93476000D02*
X146962000Y-93476000D01*
X149202000Y-93596000D02*
X146962000Y-93596000D01*
X149202000Y-93716000D02*
X146962000Y-93716000D01*
X149202000Y-97116000D02*
X149202000Y-92876000D01*
X146962000Y-97116000D02*
X149202000Y-97116000D01*
X148082000Y-97766000D02*
X148082000Y-97116000D01*
X140275000Y-76100000D02*
X140275000Y-78840000D01*
X140275000Y-76100000D02*
X145515000Y-76100000D01*
X140275000Y-78840000D02*
X145515000Y-78840000D01*
X145515000Y-76100000D02*
X145515000Y-78840000D01*
X140275000Y-63400000D02*
X140275000Y-66140000D01*
X140275000Y-63400000D02*
X145515000Y-63400000D01*
X140275000Y-66140000D02*
X145515000Y-66140000D01*
X145515000Y-63400000D02*
X145515000Y-66140000D01*
X126940000Y-87042000D02*
X126940000Y-89782000D01*
X126940000Y-87042000D02*
X132180000Y-87042000D01*
X126940000Y-89782000D02*
X132180000Y-89782000D01*
X132180000Y-87042000D02*
X132180000Y-89782000D01*
X154432000Y-97766000D02*
X154432000Y-96996000D01*
X153062000Y-96996000D02*
X155802000Y-96996000D01*
X155802000Y-96996000D02*
X155802000Y-90456000D01*
X153062000Y-90456000D02*
X153062000Y-96996000D01*
X155802000Y-90456000D02*
X153062000Y-90456000D01*
X154432000Y-89686000D02*
X154432000Y-90456000D01*
X106025000Y-95030000D02*
X106025000Y-95680000D01*
X107145000Y-95680000D02*
X104905000Y-95680000D01*
X104905000Y-95680000D02*
X104905000Y-99920000D01*
X107145000Y-96280000D02*
X104905000Y-96280000D01*
X107145000Y-96400000D02*
X104905000Y-96400000D01*
X107145000Y-96520000D02*
X104905000Y-96520000D01*
X107145000Y-99920000D02*
X107145000Y-95680000D01*
X104905000Y-99920000D02*
X107145000Y-99920000D01*
X106025000Y-100570000D02*
X106025000Y-99920000D01*
X150348000Y-118646000D02*
X146248000Y-118646000D01*
X150348000Y-118646000D02*
X150348000Y-127246000D01*
X146248000Y-118646000D02*
X146248000Y-127246000D01*
X150348000Y-127246000D02*
X146248000Y-127246000D01*
X120880000Y-107960000D02*
X120110000Y-107960000D01*
X120110000Y-109330000D02*
X120110000Y-106590000D01*
X120110000Y-106590000D02*
X113570000Y-106590000D01*
X113570000Y-109330000D02*
X120110000Y-109330000D01*
X113570000Y-106590000D02*
X113570000Y-109330000D01*
X112800000Y-107960000D02*
X113570000Y-107960000D01*
X140275000Y-66575000D02*
X140275000Y-69315000D01*
X140275000Y-66575000D02*
X145515000Y-66575000D01*
X140275000Y-69315000D02*
X145515000Y-69315000D01*
X145515000Y-66575000D02*
X145515000Y-69315000D01*
X108100000Y-118340000D02*
X128120000Y-118340000D01*
X128120000Y-118340000D02*
X128120000Y-112800000D01*
X108100000Y-116570000D02*
X108100000Y-118340000D01*
X108100000Y-112800000D02*
X108100000Y-114570000D01*
X128120000Y-112800000D02*
X108100000Y-112800000D01*
X108100000Y-116570000D02*
G75*
G03*
X108100000Y-114570000I0J1000000D01*
G01*
X153062000Y-112602000D02*
X155802000Y-112602000D01*
X153062000Y-112602000D02*
X153062000Y-107362000D01*
X155802000Y-112602000D02*
X155802000Y-107362000D01*
X153062000Y-107362000D02*
X155802000Y-107362000D01*
X136447000Y-98836775D02*
X136447000Y-98336775D01*
X136197000Y-98586775D02*
X136697000Y-98586775D01*
X135342000Y-96032000D02*
X140502000Y-96032000D01*
X135342000Y-95992000D02*
X140502000Y-95992000D01*
X135343000Y-95952000D02*
X140501000Y-95952000D01*
X135344000Y-95912000D02*
X140500000Y-95912000D01*
X135346000Y-95872000D02*
X140498000Y-95872000D01*
X135349000Y-95832000D02*
X140495000Y-95832000D01*
X135353000Y-95792000D02*
X136882000Y-95792000D01*
X138962000Y-95792000D02*
X140491000Y-95792000D01*
X135357000Y-95752000D02*
X136882000Y-95752000D01*
X138962000Y-95752000D02*
X140487000Y-95752000D01*
X135361000Y-95712000D02*
X136882000Y-95712000D01*
X138962000Y-95712000D02*
X140483000Y-95712000D01*
X135366000Y-95672000D02*
X136882000Y-95672000D01*
X138962000Y-95672000D02*
X140478000Y-95672000D01*
X135372000Y-95632000D02*
X136882000Y-95632000D01*
X138962000Y-95632000D02*
X140472000Y-95632000D01*
X135379000Y-95592000D02*
X136882000Y-95592000D01*
X138962000Y-95592000D02*
X140465000Y-95592000D01*
X135386000Y-95552000D02*
X136882000Y-95552000D01*
X138962000Y-95552000D02*
X140458000Y-95552000D01*
X135394000Y-95512000D02*
X136882000Y-95512000D01*
X138962000Y-95512000D02*
X140450000Y-95512000D01*
X135402000Y-95472000D02*
X136882000Y-95472000D01*
X138962000Y-95472000D02*
X140442000Y-95472000D01*
X135411000Y-95432000D02*
X136882000Y-95432000D01*
X138962000Y-95432000D02*
X140433000Y-95432000D01*
X135421000Y-95392000D02*
X136882000Y-95392000D01*
X138962000Y-95392000D02*
X140423000Y-95392000D01*
X135431000Y-95352000D02*
X136882000Y-95352000D01*
X138962000Y-95352000D02*
X140413000Y-95352000D01*
X135442000Y-95311000D02*
X136882000Y-95311000D01*
X138962000Y-95311000D02*
X140402000Y-95311000D01*
X135454000Y-95271000D02*
X136882000Y-95271000D01*
X138962000Y-95271000D02*
X140390000Y-95271000D01*
X135467000Y-95231000D02*
X136882000Y-95231000D01*
X138962000Y-95231000D02*
X140377000Y-95231000D01*
X135480000Y-95191000D02*
X136882000Y-95191000D01*
X138962000Y-95191000D02*
X140364000Y-95191000D01*
X135494000Y-95151000D02*
X136882000Y-95151000D01*
X138962000Y-95151000D02*
X140350000Y-95151000D01*
X135508000Y-95111000D02*
X136882000Y-95111000D01*
X138962000Y-95111000D02*
X140336000Y-95111000D01*
X135524000Y-95071000D02*
X136882000Y-95071000D01*
X138962000Y-95071000D02*
X140320000Y-95071000D01*
X135540000Y-95031000D02*
X136882000Y-95031000D01*
X138962000Y-95031000D02*
X140304000Y-95031000D01*
X135557000Y-94991000D02*
X136882000Y-94991000D01*
X138962000Y-94991000D02*
X140287000Y-94991000D01*
X135574000Y-94951000D02*
X136882000Y-94951000D01*
X138962000Y-94951000D02*
X140270000Y-94951000D01*
X135593000Y-94911000D02*
X136882000Y-94911000D01*
X138962000Y-94911000D02*
X140251000Y-94911000D01*
X135612000Y-94871000D02*
X136882000Y-94871000D01*
X138962000Y-94871000D02*
X140232000Y-94871000D01*
X135632000Y-94831000D02*
X136882000Y-94831000D01*
X138962000Y-94831000D02*
X140212000Y-94831000D01*
X135654000Y-94791000D02*
X136882000Y-94791000D01*
X138962000Y-94791000D02*
X140190000Y-94791000D01*
X135675000Y-94751000D02*
X136882000Y-94751000D01*
X138962000Y-94751000D02*
X140169000Y-94751000D01*
X135698000Y-94711000D02*
X136882000Y-94711000D01*
X138962000Y-94711000D02*
X140146000Y-94711000D01*
X135722000Y-94671000D02*
X136882000Y-94671000D01*
X138962000Y-94671000D02*
X140122000Y-94671000D01*
X135747000Y-94631000D02*
X136882000Y-94631000D01*
X138962000Y-94631000D02*
X140097000Y-94631000D01*
X135773000Y-94591000D02*
X136882000Y-94591000D01*
X138962000Y-94591000D02*
X140071000Y-94591000D01*
X135800000Y-94551000D02*
X136882000Y-94551000D01*
X138962000Y-94551000D02*
X140044000Y-94551000D01*
X135827000Y-94511000D02*
X136882000Y-94511000D01*
X138962000Y-94511000D02*
X140017000Y-94511000D01*
X135857000Y-94471000D02*
X136882000Y-94471000D01*
X138962000Y-94471000D02*
X139987000Y-94471000D01*
X135887000Y-94431000D02*
X136882000Y-94431000D01*
X138962000Y-94431000D02*
X139957000Y-94431000D01*
X135918000Y-94391000D02*
X136882000Y-94391000D01*
X138962000Y-94391000D02*
X139926000Y-94391000D01*
X135951000Y-94351000D02*
X136882000Y-94351000D01*
X138962000Y-94351000D02*
X139893000Y-94351000D01*
X135985000Y-94311000D02*
X136882000Y-94311000D01*
X138962000Y-94311000D02*
X139859000Y-94311000D01*
X136021000Y-94271000D02*
X136882000Y-94271000D01*
X138962000Y-94271000D02*
X139823000Y-94271000D01*
X136058000Y-94231000D02*
X136882000Y-94231000D01*
X138962000Y-94231000D02*
X139786000Y-94231000D01*
X136096000Y-94191000D02*
X136882000Y-94191000D01*
X138962000Y-94191000D02*
X139748000Y-94191000D01*
X136137000Y-94151000D02*
X136882000Y-94151000D01*
X138962000Y-94151000D02*
X139707000Y-94151000D01*
X136179000Y-94111000D02*
X136882000Y-94111000D01*
X138962000Y-94111000D02*
X139665000Y-94111000D01*
X136223000Y-94071000D02*
X136882000Y-94071000D01*
X138962000Y-94071000D02*
X139621000Y-94071000D01*
X136269000Y-94031000D02*
X136882000Y-94031000D01*
X138962000Y-94031000D02*
X139575000Y-94031000D01*
X136317000Y-93991000D02*
X136882000Y-93991000D01*
X138962000Y-93991000D02*
X139527000Y-93991000D01*
X136368000Y-93951000D02*
X136882000Y-93951000D01*
X138962000Y-93951000D02*
X139476000Y-93951000D01*
X136422000Y-93911000D02*
X136882000Y-93911000D01*
X138962000Y-93911000D02*
X139422000Y-93911000D01*
X136479000Y-93871000D02*
X136882000Y-93871000D01*
X138962000Y-93871000D02*
X139365000Y-93871000D01*
X136539000Y-93831000D02*
X136882000Y-93831000D01*
X138962000Y-93831000D02*
X139305000Y-93831000D01*
X136603000Y-93791000D02*
X136882000Y-93791000D01*
X138962000Y-93791000D02*
X139241000Y-93791000D01*
X136671000Y-93751000D02*
X136882000Y-93751000D01*
X138962000Y-93751000D02*
X139173000Y-93751000D01*
X136744000Y-93711000D02*
X139100000Y-93711000D01*
X136824000Y-93671000D02*
X139020000Y-93671000D01*
X136911000Y-93631000D02*
X138933000Y-93631000D01*
X137007000Y-93591000D02*
X138837000Y-93591000D01*
X137117000Y-93551000D02*
X138727000Y-93551000D01*
X137245000Y-93511000D02*
X138599000Y-93511000D01*
X137404000Y-93471000D02*
X138440000Y-93471000D01*
X137638000Y-93431000D02*
X138206000Y-93431000D01*
X140542000Y-96032000D02*
G75*
G03*
X140542000Y-96032000I-2620000J0D01*
G01*
X140275000Y-85625000D02*
X140275000Y-88365000D01*
X140275000Y-85625000D02*
X145515000Y-85625000D01*
X140275000Y-88365000D02*
X145515000Y-88365000D01*
X145515000Y-85625000D02*
X145515000Y-88365000D01*
X124400000Y-63380000D02*
X124400000Y-86480000D01*
X124400000Y-86480000D02*
X134680000Y-86480000D01*
X126890000Y-63440000D02*
X126890000Y-86420000D01*
X126890000Y-86420000D02*
X132190000Y-86420000D01*
X128540000Y-63440000D02*
X126890000Y-63440000D01*
X132190000Y-63440000D02*
X130540000Y-63440000D01*
X132190000Y-86420000D02*
X132190000Y-63440000D01*
X134680000Y-63380000D02*
X124400000Y-63380000D01*
X134680000Y-86480000D02*
X134680000Y-63380000D01*
X128540000Y-63440000D02*
G75*
G03*
X130540000Y-63440000I1000000J0D01*
G01*
X108100000Y-100560000D02*
X128120000Y-100560000D01*
X128120000Y-100560000D02*
X128120000Y-95020000D01*
X108100000Y-98790000D02*
X108100000Y-100560000D01*
X108100000Y-95020000D02*
X108100000Y-96790000D01*
X128120000Y-95020000D02*
X108100000Y-95020000D01*
X108100000Y-98790000D02*
G75*
G03*
X108100000Y-96790000I0J1000000D01*
G01*
X157652000Y-126785000D02*
X157652000Y-95815000D01*
X169992000Y-126785000D02*
X157652000Y-126785000D01*
X156757662Y-117090000D02*
X156757662Y-116590000D01*
X157190675Y-116840000D02*
X156757662Y-117090000D01*
X156757662Y-116590000D02*
X157190675Y-116840000D01*
X157652000Y-95815000D02*
X169992000Y-95815000D01*
X111954000Y-63375000D02*
X111954000Y-81395000D01*
X111954000Y-81395000D02*
X122234000Y-81395000D01*
X114444000Y-63435000D02*
X114444000Y-81335000D01*
X114444000Y-81335000D02*
X119744000Y-81335000D01*
X116094000Y-63435000D02*
X114444000Y-63435000D01*
X119744000Y-63435000D02*
X118094000Y-63435000D01*
X119744000Y-81335000D02*
X119744000Y-63435000D01*
X122234000Y-63375000D02*
X111954000Y-63375000D01*
X122234000Y-81395000D02*
X122234000Y-63375000D01*
X116094000Y-63435000D02*
G75*
G03*
X118094000Y-63435000I1000000J0D01*
G01*
X144168000Y-98452000D02*
X146408000Y-98452000D01*
X144168000Y-98452000D02*
X144168000Y-93612000D01*
X146408000Y-98452000D02*
X146408000Y-93612000D01*
X144168000Y-93612000D02*
X146408000Y-93612000D01*
X107985000Y-123014000D02*
X104135000Y-123014000D01*
X106045000Y-127313999D02*
G75*
G03*
X108401399Y-125812807I0J2599999D01*
G01*
X108367631Y-123591955D02*
G75*
G03*
X107985000Y-123014000I-2322631J-1122045D01*
G01*
X103688600Y-125812807D02*
G75*
G03*
X106045000Y-127314000I2356400J1098807D01*
G01*
X104135001Y-123014001D02*
G75*
G03*
X103742618Y-123601736I1909999J-1699999D01*
G01*
X140275000Y-82450000D02*
X140275000Y-85190000D01*
X140275000Y-82450000D02*
X145515000Y-82450000D01*
X140275000Y-85190000D02*
X145515000Y-85190000D01*
X145515000Y-82450000D02*
X145515000Y-85190000D01*
X120880000Y-125984000D02*
X120110000Y-125984000D01*
X120110000Y-127354000D02*
X120110000Y-124614000D01*
X120110000Y-124614000D02*
X113570000Y-124614000D01*
X113570000Y-127354000D02*
X120110000Y-127354000D01*
X113570000Y-124614000D02*
X113570000Y-127354000D01*
X112800000Y-125984000D02*
X113570000Y-125984000D01*
%LPC*%
D15*
X113324000Y-83566000D03*
X115824000Y-83566000D03*
X141645000Y-74295000D03*
X144145000Y-74295000D03*
X111760000Y-104785000D03*
D16*
X121920000Y-104785000D03*
D15*
X141645000Y-71120000D03*
X144145000Y-71120000D03*
X151130000Y-98806000D03*
D16*
X151130000Y-88646000D03*
D15*
X144018000Y-116078000D03*
D16*
X154178000Y-116078000D03*
D17*
X149027000Y-108458000D03*
D18*
X149027000Y-105918000D03*
X149027000Y-103378000D03*
D19*
X152870000Y-125476000D03*
D20*
X152870000Y-121666000D03*
D21*
X106045000Y-111760000D03*
D16*
X106045000Y-119380000D03*
D22*
X132608000Y-120650000D03*
D23*
X140208000Y-120650000D03*
D24*
X160932000Y-90805000D03*
X160932000Y-65805000D03*
D21*
X159512000Y-72765000D03*
D15*
X159512000Y-75535000D03*
X159512000Y-78305000D03*
X159512000Y-81075000D03*
X159512000Y-83845000D03*
X162352000Y-74150000D03*
X162352000Y-76920000D03*
X162352000Y-79690000D03*
X162352000Y-82460000D03*
X141645000Y-80645000D03*
X144145000Y-80645000D03*
D25*
X104775000Y-34290000D03*
D26*
X104775000Y-36830000D03*
X104775000Y-39370000D03*
X104775000Y-41910000D03*
X104775000Y-44450000D03*
X104775000Y-46990000D03*
X104775000Y-49530000D03*
X104775000Y-52070000D03*
X104775000Y-54610000D03*
X104775000Y-57150000D03*
X104775000Y-59690000D03*
X104775000Y-62230000D03*
X104775000Y-64770000D03*
D27*
X108585000Y-106690000D03*
D28*
X106045000Y-106690000D03*
X103505000Y-106690000D03*
D15*
X111760000Y-122682000D03*
D16*
X121920000Y-122682000D03*
D29*
X123190000Y-59690000D03*
D30*
X125730000Y-59690000D03*
X128270000Y-59690000D03*
X130810000Y-59690000D03*
X133350000Y-59690000D03*
X135890000Y-59690000D03*
X138430000Y-59690000D03*
X140970000Y-59690000D03*
X143510000Y-59690000D03*
X146050000Y-59690000D03*
X148590000Y-59690000D03*
X151130000Y-59690000D03*
X153670000Y-59690000D03*
X156210000Y-59690000D03*
X158750000Y-59690000D03*
X161290000Y-59690000D03*
X163830000Y-59690000D03*
X166370000Y-59690000D03*
X168910000Y-59690000D03*
X123190000Y-34290000D03*
X125730000Y-34290000D03*
X128270000Y-34290000D03*
X130810000Y-34290000D03*
X133350000Y-34290000D03*
X135890000Y-34290000D03*
X138430000Y-34290000D03*
X140970000Y-34290000D03*
X143510000Y-34290000D03*
X146050000Y-34290000D03*
X148590000Y-34290000D03*
X151130000Y-34290000D03*
X153670000Y-34290000D03*
X156210000Y-34290000D03*
X158750000Y-34290000D03*
X161290000Y-34290000D03*
X163830000Y-34290000D03*
X166370000Y-34290000D03*
X168910000Y-34290000D03*
D31*
X142240000Y-97282000D03*
X142240000Y-94782000D03*
D21*
X148082000Y-91186000D03*
D16*
X148082000Y-98806000D03*
D15*
X141645000Y-77470000D03*
X144145000Y-77470000D03*
X141645000Y-64770000D03*
X144145000Y-64770000D03*
X128310000Y-88412000D03*
X130810000Y-88412000D03*
X154432000Y-98806000D03*
D16*
X154432000Y-88646000D03*
D21*
X106025000Y-93990000D03*
D16*
X106025000Y-101610000D03*
D32*
X149098000Y-120396000D03*
X147498000Y-125496000D03*
D15*
X121920000Y-107960000D03*
D16*
X111760000Y-107960000D03*
D15*
X141645000Y-67945000D03*
X144145000Y-67945000D03*
D33*
X110490000Y-119380000D03*
D31*
X113030000Y-119380000D03*
X123290000Y-119380000D03*
X125730000Y-119380000D03*
X125730000Y-111760000D03*
X123290000Y-111760000D03*
X113030000Y-111760000D03*
X110490000Y-111760000D03*
D15*
X154432000Y-111232000D03*
X154432000Y-108732000D03*
D21*
X137922000Y-97282000D03*
D15*
X137922000Y-94782000D03*
X141645000Y-86995000D03*
X144145000Y-86995000D03*
D21*
X125730000Y-64770000D03*
D16*
X125730000Y-67310000D03*
X125730000Y-69850000D03*
X125730000Y-72390000D03*
X125730000Y-74930000D03*
X125730000Y-77470000D03*
X125730000Y-80010000D03*
X125730000Y-82550000D03*
X125730000Y-85090000D03*
X133350000Y-85090000D03*
X133350000Y-82550000D03*
X133350000Y-80010000D03*
X133350000Y-77470000D03*
X133350000Y-74930000D03*
X133350000Y-72390000D03*
X133350000Y-69850000D03*
X133350000Y-67310000D03*
X133350000Y-64770000D03*
D33*
X110490000Y-101600000D03*
D31*
X113030000Y-101600000D03*
X123290000Y-101600000D03*
X125730000Y-101600000D03*
X125730000Y-93980000D03*
X123290000Y-93980000D03*
X113030000Y-93980000D03*
X110490000Y-93980000D03*
D24*
X160932000Y-123800000D03*
X160932000Y-98800000D03*
D21*
X159512000Y-116840000D03*
D15*
X159512000Y-114070000D03*
X159512000Y-111300000D03*
X159512000Y-108530000D03*
X159512000Y-105760000D03*
X162352000Y-115455000D03*
X162352000Y-112685000D03*
X162352000Y-109915000D03*
X162352000Y-107145000D03*
D21*
X113284000Y-64765000D03*
D16*
X113284000Y-67305000D03*
X113284000Y-69845000D03*
X113284000Y-72385000D03*
X113284000Y-74925000D03*
X113284000Y-77465000D03*
X113284000Y-80005000D03*
X120904000Y-80005000D03*
X120904000Y-77465000D03*
X120904000Y-74925000D03*
X120904000Y-72385000D03*
X120904000Y-69845000D03*
X120904000Y-67305000D03*
X120904000Y-64765000D03*
D31*
X145288000Y-97282000D03*
X145288000Y-94782000D03*
D27*
X108585000Y-124714000D03*
D28*
X106045000Y-124714000D03*
X103505000Y-124714000D03*
D15*
X141645000Y-83820000D03*
X144145000Y-83820000D03*
X121920000Y-125984000D03*
D16*
X111760000Y-125984000D03*
%LPD*%
M02*
